<?xml version="1.0" encoding="UTF-8" standalone="no"?><svg width="30" height="30" viewBox="0 0 30 30" fill="none" xmlns="http://www.w3.org/2000/svg">
<g clip-path="url(#clip0_515_2674)">
<path d="M28.125 15.3015C28.125 14.4093 28.0512 13.5123 27.8937 12.6345H15.2632V17.6887H22.4961C22.196 19.3188 21.2316 20.7608 19.8194 21.6771V24.9565H24.1346C26.6686 22.6706 28.125 19.2947 28.125 15.3015Z" fill="#4285F4"/>
<path d="M15.2631 28.1251C18.8747 28.1251 21.9204 26.9628 24.1394 24.9566L19.8243 21.6771C18.6237 22.4777 17.0738 22.931 15.2681 22.931C11.7746 22.931 8.81257 20.621 7.74978 17.5151H3.29688V20.8959C5.57007 25.3279 10.2001 28.1251 15.2631 28.1251Z" fill="#34A853"/>
<path d="M7.74498 17.5151C7.18406 15.885 7.18406 14.1199 7.74498 12.4899V9.10913H3.297C1.39775 12.8178 1.39775 17.1872 3.297 20.8958L7.74498 17.5151Z" fill="#FBBC04"/>
<path d="M15.2631 7.06896C17.1722 7.04003 19.0174 7.74414 20.4 9.03663L24.2231 5.28939C21.8023 3.06129 18.5893 1.83633 15.2631 1.87491C10.2001 1.87491 5.57007 4.67208 3.29688 9.10897L7.74486 12.4897C8.80273 9.37904 11.7697 7.06896 15.2631 7.06896Z" fill="#EA4335"/>
</g>
<defs>
<clipPath id="clip0_515_2674">
<rect width="26.25" height="26.25" fill="white" transform="translate(1.875 1.875)"/>
</clipPath>
</defs>
</svg>
