<?xml version="1.0" encoding="UTF-8" standalone="no"?><svg width="36" height="36" viewBox="0 0 36 36" fill="none" xmlns="http://www.w3.org/2000/svg">
<path d="M21.7351 31.4055L29.8066 29.6565C29.8066 29.6565 26.8951 9.94945 26.8711 9.81895C26.8471 9.68995 26.7421 9.60295 26.6341 9.60295C26.5261 9.60295 24.4756 9.45145 24.4756 9.45145C24.4756 9.45145 23.0521 8.02795 22.8796 7.87645C22.8391 7.83295 22.7941 7.81195 22.7506 7.78945L21.7351 31.4055ZM22.4041 7.74745C22.3801 7.74745 22.3396 7.76845 22.3186 7.76845C22.2946 7.76845 21.9931 7.85695 21.5191 8.00545C21.0421 6.62695 20.2006 5.35345 18.7126 5.35345C18.6691 5.35345 18.6271 5.35345 18.5836 5.35345C18.1501 4.81195 17.6341 4.57495 17.1796 4.57495C13.7056 4.57495 12.0406 8.91295 11.5246 11.1135C10.1866 11.526 9.2176 11.8275 9.1051 11.871C8.3491 12.108 8.3296 12.129 8.2441 12.843C8.1586 13.359 6.1936 28.5765 6.1936 28.5765L21.3691 31.425L22.4041 7.74745ZM18.4516 8.80345C18.4516 8.84845 18.4516 8.91295 18.4516 8.95645C17.6131 9.21595 16.6846 9.49645 15.7771 9.77695C16.2961 7.79245 17.2651 6.81895 18.1066 6.45145C18.3256 7.01395 18.4516 7.76845 18.4516 8.80345ZM17.0716 5.50345C17.2216 5.50345 17.3731 5.54545 17.5261 5.65645C16.4281 6.17245 15.2176 7.48945 14.7196 10.1235C13.9861 10.359 13.2721 10.575 12.6031 10.7715C13.1866 8.76295 14.5906 5.50345 17.0716 5.50345ZM17.6746 17.2215C17.6746 17.2215 16.7686 16.749 15.6916 16.749C14.0716 16.749 14.0071 17.763 14.0071 18.0225C14.0071 19.404 17.6341 19.9425 17.6341 23.202C17.6341 25.77 16.0141 27.411 13.8136 27.411C11.1796 27.411 9.8416 25.77 9.8416 25.77L10.5541 23.439C10.5541 23.439 11.9371 24.6269 13.0996 24.6269C13.8586 24.6269 14.1811 24.024 14.1811 23.5919C14.1811 21.7785 11.2021 21.69 11.2021 18.714C11.2021 16.2105 12.9946 13.7715 16.6426 13.7715C18.0466 13.7715 18.7351 14.1795 18.7351 14.1795L17.6746 17.2215ZM19.0576 6.29995C19.8346 6.38995 20.3326 7.27195 20.6536 8.26645C20.2666 8.39695 19.8331 8.52595 19.3591 8.67595C19.3591 8.58895 19.3591 8.50195 19.3591 8.39545C19.3591 7.55395 19.2511 6.86245 19.0576 6.29995Z" fill="#91CF61"/>
</svg>
