<?xml version="1.0" encoding="UTF-8" standalone="no"?><svg width="36" height="36" viewBox="0 0 36 36" fill="none" xmlns="http://www.w3.org/2000/svg">
<path d="M29.8365 11.6821C30.8865 13.6036 31.485 15.8071 31.485 18.1516C31.485 23.1241 28.7895 27.4726 24.78 29.8081L28.899 17.8996C29.6685 15.9766 29.925 14.4361 29.925 13.0711C29.9235 12.5626 29.892 12.0946 29.8365 11.6821ZM19.86 11.8126C20.6685 11.7751 21.399 11.6806 21.399 11.6806C22.1265 11.5861 22.041 10.5181 21.315 10.5571C21.315 10.5571 19.1205 10.7251 17.715 10.7251C16.3845 10.7251 14.1525 10.5376 14.1525 10.5376C13.422 10.5016 13.3275 11.6071 14.061 11.6446C14.061 11.6446 14.7345 11.7226 15.468 11.7571L17.5665 17.5141L14.604 26.3626L9.693 11.7766C10.5045 11.7376 11.235 11.6521 11.235 11.6521C11.9655 11.5576 11.88 10.4896 11.1525 10.5316C11.1525 10.5316 8.97 10.7041 7.56 10.7041C7.3095 10.7041 7.0125 10.6936 6.6975 10.6846C9.1395 7.08911 13.293 4.66961 18 4.66961C21.5115 4.66961 24.7065 6.01061 27.1065 8.20961C27.0495 8.20661 26.9925 8.19761 26.931 8.19761C25.6065 8.19761 24.666 9.35261 24.666 10.5916C24.666 11.7031 25.3065 12.6451 25.9905 13.7536C26.505 14.6551 27.1035 15.8086 27.1035 17.4751C27.1035 18.6196 26.661 19.9681 26.076 21.8236L24.732 26.3041L19.857 11.7916L19.86 11.8126ZM18 31.6306C16.6755 31.6306 15.399 31.4401 14.19 31.0846L18.2355 19.3276L22.38 30.6856C22.4115 30.7516 22.443 30.8131 22.4775 30.8716C21.0765 31.3621 19.5705 31.6336 18 31.6336V31.6306ZM4.515 18.1516C4.515 16.1956 4.9335 14.3386 5.682 12.6646L12.1125 30.2881C7.617 28.1011 4.515 23.4901 4.515 18.1516ZM18 3.15161C9.7305 3.15161 3 9.88211 3 18.1516C3 26.4211 9.7305 33.1516 18 33.1516C26.2695 33.1516 33 26.4211 33 18.1516C33 9.88211 26.2695 3.15161 18 3.15161Z" fill="#4FA4CA"/>
</svg>
