<?xml version="1.0" encoding="UTF-8" standalone="no"?><svg width="36" height="36" viewBox="0 0 36 36" fill="none" xmlns="http://www.w3.org/2000/svg">
<path fill-rule="evenodd" clip-rule="evenodd" d="M18.0389 3C9.77538 3 3.07788 9.6975 3.07788 17.961C3.07788 24.57 7.36338 30.1785 13.3094 32.1585C14.0579 32.2935 14.3279 31.833 14.3279 31.437C14.3279 31.0815 14.3159 30.1395 14.3114 28.893C10.1489 29.796 9.26988 26.886 9.26988 26.886C8.59188 25.158 7.60938 24.6975 7.60938 24.6975C6.25188 23.769 7.71288 23.79 7.71288 23.79C9.21588 23.895 10.0034 25.332 10.0034 25.332C11.3384 27.618 13.5074 26.958 14.3564 26.5755C14.4929 25.608 14.8829 24.948 15.3089 24.5745C11.9879 24.198 8.49588 22.914 8.49588 17.1795C8.49588 15.549 9.07938 14.211 10.0319 13.167C9.88038 12.7875 9.36288 11.265 10.1804 9.207C10.1804 9.207 11.4359 8.8035 14.2934 10.7385C15.4904 10.407 16.7669 10.2405 18.0374 10.2345C19.3109 10.2405 20.5889 10.407 21.7814 10.7385C24.6404 8.802 25.8944 9.207 25.8944 9.207C26.7119 11.265 26.1989 12.7875 26.0429 13.167C27.0029 14.211 27.5789 15.5475 27.5789 17.1795C27.5789 22.929 24.0839 24.192 20.7509 24.5625C21.2834 25.0245 21.7634 25.9365 21.7634 27.3315C21.7634 29.3325 21.7454 30.9465 21.7454 31.437C21.7454 31.8375 22.0124 32.3025 22.7759 32.1555C28.7189 30.1725 32.9999 24.5685 32.9999 17.961C32.9999 9.6975 26.3024 3 18.0389 3Z" fill="#F3F3F3"/>
</svg>
