<?xml version="1.0" encoding="UTF-8" standalone="no"?><svg width="20" height="30" viewBox="0 0 20 30" fill="none" xmlns="http://www.w3.org/2000/svg">
<path d="M5.57145 29.1411C8.17373 29.1411 10.2857 27.0292 10.2857 24.4269V19.7126H5.57145C2.96917 19.7126 0.857178 21.8246 0.857178 24.4269C0.857178 27.0292 2.96917 29.1411 5.57145 29.1411Z" fill="#0ACF83"/>
<path d="M0.857178 14.9984C0.857178 12.3962 2.96917 10.2842 5.57145 10.2842H10.2857V19.7127H5.57145C2.96917 19.7127 0.857178 17.6007 0.857178 14.9984Z" fill="#A259FF"/>
<path d="M0.857178 5.56998C0.857178 2.9677 2.96917 0.855713 5.57145 0.855713H10.2857V10.2842H5.57145C2.96917 10.2842 0.857178 8.17225 0.857178 5.56998Z" fill="#F24E1E"/>
<path d="M10.2858 0.855713H15.0001C17.6023 0.855713 19.7143 2.9677 19.7143 5.56998C19.7143 8.17225 17.6023 10.2842 15.0001 10.2842H10.2858V0.855713Z" fill="#FF7262"/>
<path d="M19.7143 14.9984C19.7143 17.6007 17.6023 19.7127 15.0001 19.7127C12.3978 19.7127 10.2858 17.6007 10.2858 14.9984C10.2858 12.3962 12.3978 10.2842 15.0001 10.2842C17.6023 10.2842 19.7143 12.3962 19.7143 14.9984Z" fill="#1ABCFE"/>
</svg>
