<?xml version="1.0" encoding="UTF-8" standalone="no"?><svg width="60" height="60" viewBox="0 0 60 60" fill="none" xmlns="http://www.w3.org/2000/svg">
<path d="M38.33 21.67C42.93 21.67 46.66 17.9375 46.66 13.3425C46.66 8.74495 42.93 5.01245 38.33 5.01245H30H21.67C17.07 5.01245 13.34 8.74495 13.34 13.3425C13.34 17.9375 17.07 21.67 21.67 21.67C17.07 21.67 13.34 25.4025 13.34 30.0025C13.34 34.6 17.07 38.3325 21.67 38.3325C17.07 38.3325 13.34 42.0649 13.34 46.6625C13.34 51.2625 17.07 54.9925 21.67 54.9925C26.27 54.9925 30 51.2575 30 46.66V38.3299V30V21.67H38.33Z" fill="#505050"/>
<path d="M38.33 38.3299C42.9305 38.3299 46.66 34.6005 46.66 29.9999C46.66 25.3994 42.9305 21.6699 38.33 21.6699C33.7295 21.6699 30 25.3994 30 29.9999C30 34.6005 33.7295 38.3299 38.33 38.3299Z" fill="#505050"/>
</svg>
