<?xml version="1.0" encoding="UTF-8" standalone="no"?><svg width="60" height="60" viewBox="0 0 60 60" fill="none" xmlns="http://www.w3.org/2000/svg">
<path d="M50.7075 25.8899H29.89V34.5174H41.87C40.755 39.9999 36.0875 43.1499 29.89 43.1499C22.5825 43.1499 16.6925 37.2599 16.6925 29.9499C16.6925 22.6424 22.5825 16.7524 29.89 16.7524C33.0375 16.7524 35.8825 17.8699 38.115 19.6974L44.615 13.1999C40.655 9.74743 35.5775 7.61743 29.89 7.61743C17.505 7.61743 7.55499 17.5649 7.55499 29.9524C7.55499 42.3399 17.5025 52.2874 29.89 52.2874C41.0575 52.2874 51.2125 44.1649 51.2125 29.9524C51.2125 28.6324 51.01 27.2099 50.7075 25.8899Z" fill="#505050"/>
</svg>
