<?xml version="1.0" encoding="UTF-8" standalone="no"?><svg width="30" height="30" viewBox="0 0 30 30" fill="none" xmlns="http://www.w3.org/2000/svg">
<g clip-path="url(#clip0_305_2098)">
<path d="M28.1251 15.3015C28.1251 14.4093 28.0513 13.5123 27.8938 12.6345H15.2633V17.6887H22.4962C22.1961 19.3188 21.2317 20.7608 19.8195 21.6771V24.9565H24.1347C26.6687 22.6706 28.1251 19.2947 28.1251 15.3015Z" fill="#999999"/>
<path d="M15.2632 28.1251C18.8748 28.1251 21.9205 26.9628 24.1395 24.9566L19.8244 21.6771C18.6238 22.4777 17.0739 22.931 15.2682 22.931C11.7747 22.931 8.81268 20.621 7.74989 17.5151H3.29698V20.8959C5.57018 25.3279 10.2002 28.1251 15.2632 28.1251Z" fill="#999999"/>
<path d="M7.74495 17.5151C7.18403 15.885 7.18403 14.1199 7.74495 12.4899V9.10913H3.29697C1.39772 12.8178 1.39772 17.1872 3.29697 20.8958L7.74495 17.5151Z" fill="#999999"/>
<path d="M15.2633 7.06896C17.1723 7.04003 19.0175 7.74414 20.4001 9.03663L24.2232 5.28939C21.8024 3.06129 18.5894 1.83633 15.2633 1.87491C10.2002 1.87491 5.57019 4.67208 3.297 9.10897L7.74498 12.4897C8.80285 9.37904 11.7698 7.06896 15.2633 7.06896Z" fill="#999999"/>
</g>
<defs>
<clipPath id="clip0_305_2098">
<rect width="26.25" height="26.25" fill="white" transform="translate(1.875 1.875)"/>
</clipPath>
</defs>
</svg>
