<?xml version="1.0" encoding="UTF-8" standalone="no"?><svg width="20" height="30" viewBox="0 0 20 30" fill="none" xmlns="http://www.w3.org/2000/svg">
<path d="M5.57139 29.1411C8.17367 29.1411 10.2857 27.0292 10.2857 24.4269V19.7126H5.57139C2.96911 19.7126 0.857117 21.8246 0.857117 24.4269C0.857117 27.0292 2.96911 29.1411 5.57139 29.1411Z" fill="#999999"/>
<path d="M0.857117 14.9984C0.857117 12.3962 2.96911 10.2842 5.57139 10.2842H10.2857V19.7127H5.57139C2.96911 19.7127 0.857117 17.6007 0.857117 14.9984Z" fill="#999999"/>
<path d="M0.857117 5.56998C0.857117 2.9677 2.96911 0.855713 5.57139 0.855713H10.2857V10.2842H5.57139C2.96911 10.2842 0.857117 8.17225 0.857117 5.56998Z" fill="#999999"/>
<path d="M10.2857 0.855713H15C17.6023 0.855713 19.7143 2.9677 19.7143 5.56998C19.7143 8.17225 17.6023 10.2842 15 10.2842H10.2857V0.855713Z" fill="#999999"/>
<path d="M19.7143 14.9984C19.7143 17.6007 17.6023 19.7127 15 19.7127C12.3977 19.7127 10.2857 17.6007 10.2857 14.9984C10.2857 12.3962 12.3977 10.2842 15 10.2842C17.6023 10.2842 19.7143 12.3962 19.7143 14.9984Z" fill="#999999"/>
</svg>
