<?xml version="1.0" encoding="UTF-8" standalone="no"?><svg width="60" height="60" viewBox="0 0 60 60" fill="none" xmlns="http://www.w3.org/2000/svg">
<path fill-rule="evenodd" clip-rule="evenodd" d="M30.065 5C16.2925 5 5.13 16.1625 5.13 29.935C5.13 40.95 12.2725 50.2975 22.1825 53.5975C23.43 53.8225 23.88 53.055 23.88 52.395C23.88 51.8025 23.86 50.2325 23.8525 48.155C16.915 49.66 15.45 44.81 15.45 44.81C14.32 41.93 12.6825 41.1625 12.6825 41.1625C10.42 39.615 12.855 39.65 12.855 39.65C15.36 39.825 16.6725 42.22 16.6725 42.22C18.8975 46.03 22.5125 44.93 23.9275 44.2925C24.155 42.68 24.805 41.58 25.515 40.9575C19.98 40.33 14.16 38.19 14.16 28.6325C14.16 25.915 15.1325 23.685 16.72 21.945C16.4675 21.3125 15.605 18.775 16.9675 15.345C16.9675 15.345 19.06 14.6725 23.8225 17.8975C25.8175 17.345 27.945 17.0675 30.0625 17.0575C32.185 17.0675 34.315 17.345 36.3025 17.8975C41.0675 14.67 43.1575 15.345 43.1575 15.345C44.52 18.775 43.665 21.3125 43.405 21.945C45.005 23.685 45.965 25.9125 45.965 28.6325C45.965 38.215 40.14 40.32 34.585 40.9375C35.4725 41.7075 36.2725 43.2275 36.2725 45.5525C36.2725 48.8875 36.2425 51.5775 36.2425 52.395C36.2425 53.0625 36.6875 53.8375 37.96 53.5925C47.865 50.2875 55 40.9475 55 29.935C55 16.1625 43.8375 5 30.065 5Z" fill="#505050"/>
</svg>
