<?xml version="1.0" encoding="UTF-8" standalone="no"?><svg width="36" height="36" viewBox="0 0 36 36" fill="none" xmlns="http://www.w3.org/2000/svg">
<path d="M21.735 31.4055L29.8065 29.6565C29.8065 29.6565 26.895 9.94945 26.871 9.81895C26.847 9.68995 26.742 9.60295 26.634 9.60295C26.526 9.60295 24.4755 9.45145 24.4755 9.45145C24.4755 9.45145 23.052 8.02795 22.8795 7.87645C22.839 7.83295 22.794 7.81195 22.7505 7.78945L21.735 31.4055ZM22.404 7.74745C22.38 7.74745 22.3395 7.76845 22.3185 7.76845C22.2945 7.76845 21.993 7.85695 21.519 8.00545C21.042 6.62695 20.2005 5.35345 18.7125 5.35345C18.669 5.35345 18.627 5.35345 18.5835 5.35345C18.15 4.81195 17.634 4.57495 17.1795 4.57495C13.7055 4.57495 12.0405 8.91295 11.5245 11.1135C10.1865 11.526 9.2175 11.8275 9.105 11.871C8.349 12.108 8.3295 12.129 8.244 12.843C8.1585 13.359 6.1935 28.5765 6.1935 28.5765L21.369 31.425L22.404 7.74745ZM18.4515 8.80345C18.4515 8.84845 18.4515 8.91295 18.4515 8.95645C17.613 9.21595 16.6845 9.49645 15.777 9.77695C16.296 7.79245 17.265 6.81895 18.1065 6.45145C18.3255 7.01395 18.4515 7.76845 18.4515 8.80345ZM17.0715 5.50345C17.2215 5.50345 17.373 5.54545 17.526 5.65645C16.428 6.17245 15.2175 7.48945 14.7195 10.1235C13.986 10.359 13.272 10.575 12.603 10.7715C13.1865 8.76295 14.5905 5.50345 17.0715 5.50345ZM17.6745 17.2215C17.6745 17.2215 16.7685 16.749 15.6915 16.749C14.0715 16.749 14.007 17.763 14.007 18.0225C14.007 19.404 17.634 19.9425 17.634 23.202C17.634 25.77 16.014 27.411 13.8135 27.411C11.1795 27.411 9.8415 25.77 9.8415 25.77L10.554 23.439C10.554 23.439 11.937 24.6269 13.0995 24.6269C13.8585 24.6269 14.181 24.024 14.181 23.5919C14.181 21.7785 11.202 21.69 11.202 18.714C11.202 16.2105 12.9945 13.7715 16.6425 13.7715C18.0465 13.7715 18.735 14.1795 18.735 14.1795L17.6745 17.2215ZM19.0575 6.29995C19.8345 6.38995 20.3325 7.27195 20.6535 8.26645C20.2665 8.39695 19.833 8.52595 19.359 8.67595C19.359 8.58895 19.359 8.50195 19.359 8.39545C19.359 7.55395 19.251 6.86245 19.0575 6.29995Z" fill="#999999"/>
</svg>
