<?xml version="1.0" encoding="UTF-8" standalone="no"?><svg width="60" height="60" viewBox="0 0 60 60" fill="none" xmlns="http://www.w3.org/2000/svg">
<path d="M7.5 7.5H52.5V52.5H7.5V7.5ZM48.8125 41.7675C48.485 39.715 47.1475 37.99 43.1825 36.38C41.8025 35.7325 40.27 35.285 39.81 34.245C39.64 33.625 39.615 33.29 39.725 32.9225C40.0075 31.7125 41.4425 31.35 42.5675 31.685C43.3 31.91 43.975 32.4725 44.3975 33.375C46.335 32.1075 46.335 32.1075 47.6875 31.265C47.18 30.48 46.9275 30.1375 46.59 29.8C45.4075 28.48 43.8325 27.805 41.275 27.8625L39.955 28.03C38.6875 28.34 37.4775 29.0175 36.7475 29.915C34.61 32.335 35.2275 36.5525 37.815 38.3C40.3725 40.2125 44.1175 40.6325 44.595 42.4325C45.045 44.6275 42.965 45.33 40.9075 45.0775C39.39 44.7375 38.545 43.98 37.6175 42.5725L34.1875 44.5425C34.58 45.44 35.03 45.835 35.705 46.6225C38.9675 49.9125 47.125 49.745 48.5875 44.7375C48.64 44.57 49.0375 43.4175 48.7275 41.645L48.8125 41.7675ZM31.97 28.1825H27.755C27.755 31.815 27.7375 35.4275 27.7375 39.0675C27.7375 41.3775 27.855 43.4975 27.4775 44.15C26.86 45.4425 25.2625 45.2775 24.54 45.0475C23.7975 44.6825 23.42 44.175 22.9825 43.445C22.865 43.25 22.7775 43.08 22.745 43.08L19.325 45.19C19.8975 46.3725 20.7325 47.3875 21.81 48.0325C23.4125 48.99 25.565 49.3 27.82 48.795C29.29 48.37 30.5575 47.4975 31.215 46.1475C32.175 44.405 31.97 42.265 31.9625 39.875C31.9825 36.0225 31.9625 32.1675 31.9625 28.2875L31.97 28.1825Z" fill="#505050"/>
</svg>
