<?xml version="1.0" encoding="UTF-8" standalone="no"?><svg width="60" height="60" viewBox="0 0 60 60" fill="none" xmlns="http://www.w3.org/2000/svg">
<path d="M30 54.9625C29.3125 54.9625 28.67 54.7775 28.07 54.4575L21.9725 50.8375C21.06 50.33 21.5175 50.145 21.7925 50.0525C23.0325 49.64 23.2625 49.55 24.545 48.82C24.685 48.7275 24.8675 48.77 25.0075 48.8625L29.6825 51.6625C29.8675 51.7525 30.0975 51.7525 30.235 51.6625L48.5325 41.07C48.7175 40.98 48.8075 40.795 48.8075 40.565V19.42C48.8075 19.1925 48.7175 19.0075 48.5325 18.9175L30.235 8.37001C30.0525 8.27751 29.8225 8.27751 29.6825 8.37001L11.38 18.915C11.1975 19.005 11.105 19.2375 11.105 19.4175V40.56C11.105 40.7425 11.1975 40.975 11.38 41.065L16.38 43.9575C19.085 45.3275 20.785 43.72 20.785 42.12V21.255C20.785 20.98 21.0125 20.7025 21.335 20.7025H23.675C23.945 20.7025 24.225 20.9325 24.225 21.255V42.1225C24.225 45.745 22.255 47.8575 18.815 47.8575C17.76 47.8575 16.935 47.8575 14.595 46.7075L9.7825 43.96C8.585 43.2675 7.855 41.9825 7.855 40.61V19.465C7.855 18.09 8.5875 16.805 9.7825 16.1175L28.0725 5.52501C29.225 4.88001 30.7825 4.88001 31.9325 5.52501L50.225 16.1175C51.4225 16.8025 52.1525 18.09 52.1525 19.465V40.61C52.1525 41.9825 51.42 43.2675 50.225 43.96L31.9325 54.55C31.33 54.825 30.6425 54.9625 30 54.9625ZM35.64 40.4225C27.615 40.4225 25.965 36.7525 25.965 33.6375C25.965 33.3625 26.195 33.085 26.515 33.085H28.9C29.175 33.085 29.4025 33.2675 29.4025 33.545C29.77 35.9725 30.8225 37.1675 35.6875 37.1675C39.5375 37.1675 41.1925 36.2925 41.1925 34.23C41.1925 33.0375 40.73 32.1675 34.725 31.5725C29.7275 31.0725 26.61 29.965 26.61 25.9775C26.61 22.265 29.7275 20.0625 34.9575 20.0625C40.825 20.0625 43.715 22.085 44.08 26.4825C44.08 26.62 44.0325 26.755 43.94 26.895C43.8475 26.985 43.7125 27.0775 43.575 27.0775H41.1925C40.9575 27.0775 40.73 26.895 40.6875 26.6675C40.135 24.1375 38.715 23.3175 34.9575 23.3175C30.735 23.3175 30.23 24.785 30.23 25.885C30.23 27.2125 30.8225 27.625 36.515 28.36C42.155 29.0925 44.815 30.1475 44.815 34.095C44.765 38.1325 41.4675 40.4225 35.64 40.4225Z" fill="#505050"/>
</svg>
