<?xml version="1.0" encoding="UTF-8" standalone="no"?><svg width="36" height="36" viewBox="0 0 36 36" fill="none" xmlns="http://www.w3.org/2000/svg">
<path d="M4.5 4.5H31.5V31.5H4.5V4.5ZM29.2875 25.0605C29.091 23.829 28.2885 22.794 25.9095 21.828C25.0815 21.4395 24.162 21.171 23.886 20.547C23.784 20.175 23.769 19.974 23.835 19.7535C24.0045 19.0275 24.8655 18.81 25.5405 19.011C25.98 19.146 26.385 19.4835 26.6385 20.025C27.801 19.2645 27.801 19.2645 28.6125 18.759C28.308 18.288 28.1565 18.0825 27.954 17.88C27.2445 17.088 26.2995 16.683 24.765 16.7175L23.973 16.818C23.2125 17.004 22.4865 17.4105 22.0485 17.949C20.766 19.401 21.1365 21.9315 22.689 22.98C24.2235 24.1275 26.4705 24.3795 26.757 25.4595C27.027 26.7765 25.779 27.198 24.5445 27.0465C23.634 26.8425 23.127 26.388 22.5705 25.5435L20.5125 26.7255C20.748 27.264 21.018 27.501 21.423 27.9735C23.3805 29.9475 28.275 29.847 29.1525 26.8425C29.184 26.742 29.4225 26.0505 29.2365 24.987L29.2875 25.0605ZM19.182 16.9095H16.653C16.653 19.089 16.6425 21.2565 16.6425 23.4405C16.6425 24.8265 16.713 26.0985 16.4865 26.49C16.116 27.2655 15.1575 27.1665 14.724 27.0285C14.2785 26.8095 14.052 26.505 13.7895 26.067C13.719 25.95 13.6665 25.848 13.647 25.848L11.595 27.114C11.9385 27.8235 12.4395 28.4325 13.086 28.8195C14.0475 29.394 15.339 29.58 16.692 29.277C17.574 29.022 18.3345 28.4985 18.729 27.6885C19.305 26.643 19.182 25.359 19.1775 23.925C19.1895 21.6135 19.1775 19.3005 19.1775 16.9725L19.182 16.9095Z" fill="#999999"/>
</svg>
