<?xml version="1.0" encoding="UTF-8" standalone="no"?><svg width="60" height="60" viewBox="0 0 60 60" fill="none" xmlns="http://www.w3.org/2000/svg">
<path d="M52.23 24.7224C52.215 24.6499 52.1925 24.5749 52.1675 24.5049L46.9075 8.30739C46.6175 7.45239 45.8125 6.87739 44.9075 6.88239C44.005 6.87739 43.205 7.45989 42.935 8.31989L37.92 23.7574H22.085L17.065 8.31739C16.795 7.45989 15.995 6.87739 15.1 6.87989H15.085C14.1825 6.87989 13.38 7.45989 13.0975 8.31739L7.83252 24.5374C7.83252 24.5499 7.82002 24.5624 7.81502 24.5774L5.14752 32.7799C4.74502 34.0149 5.18002 35.3649 6.23502 36.1299L29.3025 52.8949C29.72 53.1974 30.285 53.1949 30.6975 52.8874L53.77 36.1299C54.8175 35.3649 55.26 34.0149 54.8575 32.7799L52.23 24.7224ZM44.925 9.83989L49.4475 23.7549H40.4L44.925 9.83989ZM15.075 9.83989L19.605 23.7549H10.57L15.075 9.83989ZM7.62002 34.2199C7.39502 34.0599 7.30252 33.7699 7.38752 33.5099L9.37002 27.4174L23.9125 46.0574L7.62002 34.2199ZM11.3675 26.1224H20.37L26.8025 45.9124L11.3675 26.1224ZM29.9975 48.1074L22.8575 26.1124H37.1525L32.6725 39.8999L29.9975 48.1074ZM33.2025 45.9149L39.37 26.9449L39.635 26.1224H48.645L34.68 44.0124L33.2025 45.9149ZM52.38 34.2199L36.0825 46.0524L36.1375 45.9799L50.6225 27.4174L52.6025 33.5074C52.695 33.7724 52.6 34.0599 52.38 34.2199Z" fill="#505050"/>
</svg>
