<?xml version="1.0" encoding="UTF-8" standalone="no"?><svg width="24" height="24" viewBox="0 0 24 24" fill="none" xmlns="http://www.w3.org/2000/svg">
<path d="M13 16H15V18H13V16ZM17 16H19V18H17V16ZM13 6H15V8H13V6ZM17 6H19V8H17V6Z" fill="#C4C4C4" fill-opacity="0.4"/>
<path d="M20 3H4C2.896 3 2 3.896 2 5V9C2 10.104 2.896 11 4 11H20C21.104 11 22 10.104 22 9V5C22 3.896 21.104 3 20 3ZM15 8H13V6H15V8ZM19 8H17V6H19V8ZM20 13H4C2.896 13 2 13.896 2 15V19C2 20.104 2.896 21 4 21H20C21.104 21 22 20.104 22 19V15C22 13.896 21.104 13 20 13ZM15 18H13V16H15V18ZM19 18H17V16H19V18Z" fill="#FFB32C"/>
</svg>
