<?xml version="1.0" encoding="UTF-8" standalone="no"?><svg width="24" height="24" viewBox="0 0 24 24" fill="none" xmlns="http://www.w3.org/2000/svg">
<path d="M17.867 2.504C17.512 1.88 16.486 1.881 16.131 2.504L12.132 9.504C11.955 9.814 11.956 10.194 12.135 10.502C12.314 10.81 12.644 11 13 11H21C21.356 11 21.686 10.81 21.865 10.502C22.044 10.193 22.045 9.814 21.868 9.504L17.867 2.504ZM3 22H10C10.553 22 11 21.553 11 21V14C11 13.447 10.553 13 10 13H3C2.447 13 2 13.447 2 14V21C2 21.553 2.447 22 3 22ZM17.5 13C15.019 13 13 15.019 13 17.5C13 19.981 15.019 22 17.5 22C19.981 22 22 19.981 22 17.5C22 15.019 19.981 13 17.5 13Z" fill="#FF6447"/>
</svg>
