<?xml version="1.0" encoding="UTF-8" standalone="no"?><svg width="28" height="30" viewBox="0 0 28 30" fill="none" xmlns="http://www.w3.org/2000/svg">
<path d="M4.20855 7.15332H14.0605C15.5983 7.15332 16.8405 8.396 16.8405 9.92341V19.7496C16.8405 21.277 15.5983 22.5197 14.0605 22.5197H4.20855C2.67074 22.5197 1.42857 21.277 1.42857 19.7496V9.92341C1.42857 8.396 2.67074 7.15332 4.20855 7.15332Z" fill="#1F1F1F" stroke="#999999" stroke-width="2"/>
<path d="M24.607 9.18323C24.607 13.5217 21.0801 17.0432 16.7238 17.0432C12.3675 17.0432 8.84056 13.5217 8.84056 9.18323C8.84056 4.84475 12.3675 1.32324 16.7238 1.32324C21.0801 1.32324 24.607 4.84475 24.607 9.18323Z" fill="#1F1F1F" stroke="#999999" stroke-width="2"/>
<path d="M25.8539 22.2285L25.851 22.2302L14.9634 28.4923L14.9626 28.4927C14.1427 28.9652 13.6269 28.8853 13.3801 28.7432C13.1341 28.6016 12.8076 28.1976 12.8076 27.2542V14.7243C12.8076 13.7829 13.1338 13.3792 13.3801 13.2374C13.6275 13.0949 14.1437 13.0151 14.963 13.486C14.9631 13.486 14.9632 13.4861 14.9633 13.4861C14.9634 13.4862 14.9635 13.4862 14.9635 13.4863L25.8503 19.7534C25.8504 19.7535 25.8505 19.7536 25.8506 19.7536C25.8506 19.7536 25.8507 19.7537 25.8507 19.7537C26.669 20.2253 26.8571 20.7121 26.8571 20.9962C26.8571 21.279 26.6705 21.7625 25.8539 22.2285Z" fill="#1F1F1F" stroke="#999999" stroke-width="2"/>
</svg>
