<?xml version="1.0" encoding="UTF-8" standalone="no"?><svg width="24" height="26" viewBox="0 0 24 26" fill="none" xmlns="http://www.w3.org/2000/svg">
<path d="M12.057 5.62402H4.24277C2.58694 5.62402 1.24463 6.96282 1.24463 8.61432V16.4081C1.24463 18.0596 2.58694 19.3984 4.24277 19.3984H12.057C13.7128 19.3984 15.0551 18.0596 15.0551 16.4081V8.61432C15.0551 6.96282 13.7128 5.62402 12.057 5.62402Z" fill="#292929" stroke="white" stroke-width="1.5"/>
<path d="M21.8043 15.7236C23.3986 16.6423 23.3986 18.1529 21.8043 19.0628L13.1686 24.0297C11.5743 24.9484 10.2701 24.1975 10.2701 22.3601V12.4219C10.2701 10.5866 11.5743 9.83571 13.1686 10.7522L21.8043 15.7236Z" fill="#292929" stroke="white" stroke-width="1.5"/>
<path d="M14.1694 15.0548C18.0607 15.0548 21.2152 11.9086 21.2152 8.02742C21.2152 4.14628 18.0607 1 14.1694 1C10.2781 1 7.12354 4.14628 7.12354 8.02742C7.12354 11.9086 10.2781 15.0548 14.1694 15.0548Z" fill="#292929" stroke="white" stroke-width="1.5"/>
</svg>
