<?xml version="1.0" encoding="UTF-8" standalone="no"?><svg width="112" height="60" viewBox="0 0 112 60" fill="none" xmlns="http://www.w3.org/2000/svg">
<g filter="url(#filter0_d_515_1496)">
<path d="M11.7637 50.6856C10.2766 51.0841 8.91577 49.7233 9.31425 48.2362L12.8578 35.0116C13.2562 33.5245 15.1152 33.0264 16.2038 34.115L25.8849 43.7961C26.9735 44.8847 26.4754 46.7437 24.9883 47.1421L11.7637 50.6856Z" fill="#1FCC76"/>
<rect x="23.2492" width="88.0152" height="38.1953" rx="19.0976" fill="#1FCC76"/>
<path d="M49.6385 24.848C48.4367 24.848 47.399 24.5865 46.5254 24.0635C45.6574 23.5405 44.9869 22.8088 44.514 21.8685C44.0466 20.9281 43.8129 19.8348 43.8129 18.5884C43.8129 17.3421 44.0466 16.2487 44.514 15.3084C44.9869 14.368 45.6574 13.6364 46.5254 13.1133C47.399 12.5903 48.4367 12.3288 49.6385 12.3288C50.8404 12.3288 51.8753 12.5903 52.7433 13.1133C53.6169 13.6364 54.2873 14.368 54.7547 15.3084C55.2277 16.2487 55.4641 17.3421 55.4641 18.5884C55.4641 19.8348 55.2277 20.9281 54.7547 21.8685C54.2873 22.8088 53.6169 23.5405 52.7433 24.0635C51.8753 24.5865 50.8404 24.848 49.6385 24.848ZM49.6385 22.7114C50.4008 22.7226 51.0351 22.5584 51.5414 22.219C52.0478 21.8796 52.4261 21.3983 52.6765 20.7751C52.9325 20.1519 53.0604 19.423 53.0604 18.5884C53.0604 17.7538 52.9325 17.0305 52.6765 16.4184C52.4261 15.8064 52.0478 15.3306 51.5414 14.9912C51.0351 14.6518 50.4008 14.4765 49.6385 14.4654C48.8762 14.4543 48.2419 14.6184 47.7356 14.9578C47.2293 15.2973 46.8481 15.7785 46.5922 16.4017C46.3418 17.0249 46.2166 17.7538 46.2166 18.5884C46.2166 19.423 46.3418 20.1464 46.5922 20.7584C46.8481 21.3705 47.2293 21.8462 47.7356 22.1856C48.2419 22.525 48.8762 22.7003 49.6385 22.7114ZM57.1302 24.5977V12.3288H59.4004V24.5977H57.1302ZM61.9025 14.3319V12.3288H64.1727V14.3319H61.9025ZM61.9025 24.5977V15.5838H64.1727V24.5977H61.9025ZM68.945 24.5977L65.6733 15.5838H67.9435L70.0801 21.8267L72.2167 15.5838H74.4869L71.2152 24.5977H68.945ZM79.692 24.848C78.7684 24.848 77.9532 24.6505 77.2466 24.2555C76.5455 23.8548 75.9946 23.3068 75.594 22.6113C75.199 21.9102 75.0015 21.109 75.0015 20.2076C75.0015 19.2227 75.1962 18.3659 75.5857 17.637C75.9752 16.9081 76.5121 16.3433 77.1965 15.9427C77.8809 15.5365 78.6682 15.3334 79.5585 15.3334C80.5044 15.3334 81.3084 15.556 81.9705 16.0011C82.6326 16.4462 83.1223 17.0722 83.4394 17.879C83.7566 18.6858 83.8679 19.6345 83.7733 20.725H81.5282V19.8904C81.5282 18.9723 81.3807 18.313 81.0858 17.9124C80.7965 17.5062 80.3207 17.3031 79.6586 17.3031C78.8852 17.3031 78.3149 17.5396 77.9476 18.0125C77.586 18.4799 77.4051 19.1727 77.4051 20.0907C77.4051 20.9309 77.586 21.5819 77.9476 22.0437C78.3149 22.5 78.8518 22.7281 79.5585 22.7281C80.0036 22.7281 80.3847 22.6307 80.7019 22.436C81.019 22.2413 81.2611 21.9603 81.428 21.593L83.6982 22.244C83.3587 23.0675 82.8218 23.7074 82.0873 24.1637C81.3584 24.6199 80.56 24.848 79.692 24.848ZM76.7041 20.725V19.0391H82.6799V20.725H76.7041ZM85.4909 24.5977V15.5838H87.494V17.7872L87.277 17.5034C87.3938 17.1918 87.5496 16.9081 87.7443 16.6521C87.9391 16.3962 88.1783 16.1847 88.4621 16.0178C88.6791 15.8843 88.9156 15.7813 89.1715 15.709C89.4275 15.6311 89.6918 15.5838 89.9644 15.5671C90.2371 15.5449 90.5097 15.5504 90.7823 15.5838V17.7037C90.532 17.6258 90.2398 17.6008 89.906 17.6286C89.5777 17.6509 89.28 17.726 89.013 17.854C88.7459 17.9764 88.5205 18.1405 88.3369 18.3464C88.1533 18.5467 88.0142 18.7859 87.9196 19.0642C87.825 19.3368 87.7777 19.6456 87.7777 19.9906V24.5977H85.4909Z" fill="#161616"/>
</g>
<defs>
<filter id="filter0_d_515_1496" x="-32.756" y="-38" width="186.02" height="134.756" filterUnits="userSpaceOnUse" color-interpolation-filters="sRGB">
<feFlood flood-opacity="0" result="BackgroundImageFix"/>
<feColorMatrix in="SourceAlpha" type="matrix" values="0 0 0 0 0 0 0 0 0 0 0 0 0 0 0 0 0 0 127 0" result="hardAlpha"/>
<feOffset dy="4"/>
<feGaussianBlur stdDeviation="21"/>
<feComposite in2="hardAlpha" operator="out"/>
<feColorMatrix type="matrix" values="0 0 0 0 0.101961 0 0 0 0 0.101961 0 0 0 0 0.101961 0 0 0 0.16 0"/>
<feBlend mode="normal" in2="BackgroundImageFix" result="effect1_dropShadow_515_1496"/>
<feBlend mode="normal" in="SourceGraphic" in2="effect1_dropShadow_515_1496" result="shape"/>
</filter>
</defs>
</svg>
