<?xml version="1.0" encoding="UTF-8" standalone="no"?><svg width="116" height="60" viewBox="0 0 116 60" fill="none" xmlns="http://www.w3.org/2000/svg">
<g filter="url(#filter0_d_515_1492)">
<path d="M11.7603 9.31083C10.2732 8.91235 8.91237 10.2732 9.31084 11.7603L12.8521 24.9765C13.2506 26.4637 15.1095 26.9618 16.1982 25.8731L25.8731 16.1982C26.9618 15.1095 26.4637 13.2506 24.9765 12.8521L11.7603 9.31083Z" fill="#00BBE6"/>
<rect x="23.2396" y="21.8208" width="92.1283" height="38.1793" rx="19.0896" fill="#00BBE6"/>
<path d="M46.9759 46.6608C46.0189 46.6608 45.2288 46.416 44.6056 45.9263C43.988 45.4367 43.5484 44.7746 43.2869 43.9399L45.5237 43.4058C45.5738 43.7118 45.7351 43.9789 46.0078 44.207C46.2804 44.4296 46.5697 44.5409 46.8758 44.5409C47.0872 44.5409 47.3125 44.4824 47.5518 44.3656C47.7966 44.2487 47.9719 44.0623 48.0776 43.8064C48.1444 43.645 48.1833 43.4475 48.1944 43.2138C48.2056 42.9801 48.2111 42.7103 48.2111 42.4042V34.3919H50.5147V42.4042C50.5147 42.7882 50.5119 43.122 50.5063 43.4058C50.5063 43.6896 50.4785 43.9566 50.4229 44.207C50.3728 44.4518 50.2699 44.7078 50.1141 44.9749C49.7747 45.5647 49.3323 45.9931 48.787 46.2602C48.2417 46.5272 47.638 46.6608 46.9759 46.6608ZM55.3504 46.6608C54.7049 46.6608 54.1569 46.5384 53.7062 46.2936C53.261 46.0432 52.9216 45.7121 52.6879 45.3004C52.4598 44.8831 52.3457 44.424 52.3457 43.9232C52.3457 43.5059 52.4097 43.1248 52.5377 42.7798C52.6657 42.4348 52.8716 42.1316 53.1553 41.8701C53.4447 41.603 53.8314 41.3804 54.3154 41.2024C54.6493 41.08 55.0471 40.9715 55.5089 40.8769C55.9708 40.7823 56.4938 40.6933 57.078 40.6098C57.6622 40.5208 58.3049 40.4234 59.006 40.3177L58.1881 40.7684C58.1881 40.2342 58.0601 39.842 57.8041 39.5916C57.5482 39.3412 57.1197 39.216 56.5188 39.216C56.185 39.216 55.8372 39.2967 55.4756 39.458C55.1139 39.6194 54.8607 39.906 54.7161 40.3177L52.6629 39.6667C52.891 38.9211 53.3195 38.3146 53.9482 37.8472C54.577 37.3799 55.4338 37.1462 56.5188 37.1462C57.3145 37.1462 58.0211 37.2686 58.6387 37.5134C59.2564 37.7582 59.7238 38.1811 60.0409 38.782C60.219 39.1159 60.3247 39.4497 60.3581 39.7835C60.3914 40.1174 60.4081 40.4902 60.4081 40.9019V46.4104H58.4217V44.5576L58.7055 44.9415C58.266 45.548 57.7902 45.9875 57.2783 46.2602C56.772 46.5272 56.1293 46.6608 55.3504 46.6608ZM55.8344 44.8747C56.2517 44.8747 56.6023 44.8024 56.8861 44.6577C57.1754 44.5075 57.4035 44.3378 57.5704 44.1486C57.7429 43.9594 57.8598 43.8008 57.921 43.6729C58.0378 43.428 58.1046 43.1443 58.1213 42.8216C58.1435 42.4933 58.1547 42.2206 58.1547 42.0036L58.8224 42.1706C58.1491 42.2818 57.6038 42.3764 57.1865 42.4543C56.7692 42.5267 56.4326 42.5934 56.1766 42.6546C55.9207 42.7158 55.6953 42.7826 55.5006 42.8549C55.278 42.944 55.0972 43.0413 54.9581 43.1471C54.8246 43.2472 54.7244 43.3585 54.6576 43.4809C54.5964 43.6033 54.5658 43.7396 54.5658 43.8899C54.5658 44.0957 54.6159 44.2738 54.7161 44.424C54.8218 44.5687 54.9692 44.68 55.1584 44.7579C55.3476 44.8358 55.5729 44.8747 55.8344 44.8747ZM73.2614 46.4104V41.0856C73.2614 40.4902 73.1195 40.0284 72.8357 39.7001C72.5575 39.3662 72.1708 39.1993 71.6756 39.1993C71.3584 39.1993 71.083 39.2744 70.8493 39.4247C70.6156 39.5693 70.432 39.7752 70.2985 40.0423C70.1705 40.3038 70.1065 40.607 70.1065 40.952L69.155 40.3177C69.155 39.7001 69.2997 39.1548 69.589 38.6819C69.8839 38.2089 70.2762 37.8417 70.7658 37.5802C71.2611 37.3131 71.8091 37.1795 72.41 37.1795C73.4394 37.1795 74.2156 37.4856 74.7386 38.0976C75.2672 38.7041 75.5315 39.4998 75.5315 40.4846V46.4104H73.2614ZM62.3947 46.4104V37.3965H64.3977V40.3845H64.6815V46.4104H62.3947ZM67.8363 46.4104V41.0856C67.8363 40.4902 67.6945 40.0284 67.4107 39.7001C67.1325 39.3662 66.7458 39.1993 66.2506 39.1993C65.7776 39.1993 65.3965 39.3635 65.1072 39.6917C64.8234 40.0145 64.6815 40.4346 64.6815 40.952L63.73 40.2843C63.73 39.6945 63.8775 39.1659 64.1724 38.6985C64.4673 38.2312 64.8623 37.8612 65.3575 37.5885C65.8583 37.3159 66.4175 37.1795 67.0351 37.1795C67.7418 37.1795 68.3204 37.3298 68.7711 37.6302C69.2274 37.9307 69.564 38.3313 69.781 38.8321C69.998 39.3329 70.1065 39.8837 70.1065 40.4846V46.4104H67.8363ZM81.5616 46.6608C80.638 46.6608 79.8228 46.4633 79.1162 46.0682C78.4151 45.6676 77.8643 45.1195 77.4636 44.424C77.0686 43.7229 76.8711 42.9217 76.8711 42.0203C76.8711 41.0355 77.0658 40.1786 77.4553 39.4497C77.8448 38.7208 78.3817 38.156 79.0661 37.7554C79.7505 37.3493 80.5378 37.1462 81.4281 37.1462C82.374 37.1462 83.178 37.3687 83.8401 37.8139C84.5022 38.259 84.9919 38.8849 85.309 39.6917C85.6262 40.4985 85.7375 41.4472 85.6429 42.5378H83.3978V41.7032C83.3978 40.7851 83.2503 40.1257 82.9554 39.7251C82.6661 39.3189 82.1904 39.1159 81.5282 39.1159C80.7548 39.1159 80.1845 39.3523 79.8173 39.8253C79.4556 40.2927 79.2748 40.9854 79.2748 41.9035C79.2748 42.7437 79.4556 43.3947 79.8173 43.8565C80.1845 44.3127 80.7214 44.5409 81.4281 44.5409C81.8732 44.5409 82.2543 44.4435 82.5715 44.2487C82.8886 44.054 83.1307 43.773 83.2976 43.4058L85.5678 44.0568C85.2284 44.8803 84.6914 45.5201 83.957 45.9764C83.2281 46.4327 82.4296 46.6608 81.5616 46.6608ZM78.5737 42.5378V40.8519H84.5495V42.5378H78.5737ZM90.8826 46.6608C89.7475 46.6608 88.8294 46.4048 88.1283 45.8929C87.4328 45.3755 87.01 44.6466 86.8597 43.7062L89.18 43.3557C89.2745 43.7786 89.4832 44.1096 89.8059 44.3489C90.1342 44.5882 90.5487 44.7078 91.0495 44.7078C91.4612 44.7078 91.7784 44.6299 92.001 44.4741C92.2235 44.3127 92.3348 44.0902 92.3348 43.8064C92.3348 43.6283 92.2903 43.4865 92.2013 43.3807C92.1122 43.2695 91.9119 43.161 91.6003 43.0552C91.2943 42.9495 90.8158 42.8104 90.1648 42.6379C89.4303 42.4488 88.8433 42.2373 88.4038 42.0036C87.9642 41.7699 87.647 41.4917 87.4523 41.169C87.2576 40.8407 87.1602 40.4457 87.1602 39.9839C87.1602 39.4052 87.3076 38.9044 87.6025 38.4815C87.8974 38.0531 88.312 37.7248 88.8461 37.4967C89.3858 37.263 90.0201 37.1462 90.749 37.1462C91.4557 37.1462 92.0816 37.2547 92.6269 37.4717C93.1722 37.6887 93.6118 37.9975 93.9456 38.3981C94.285 38.7987 94.4937 39.2717 94.5716 39.8169L92.2513 40.2342C92.2124 39.9004 92.0677 39.6361 91.8173 39.4414C91.567 39.2466 91.2275 39.1325 90.7991 39.0992C90.3818 39.0713 90.0452 39.127 89.7892 39.2661C89.5388 39.4052 89.4136 39.6055 89.4136 39.867C89.4136 40.0228 89.4665 40.1536 89.5722 40.2593C89.6835 40.365 89.9089 40.4735 90.2483 40.5848C90.5932 40.6961 91.1163 40.8407 91.8173 41.0188C92.5017 41.1968 93.0498 41.4055 93.4615 41.6447C93.8788 41.8784 94.1821 42.1622 94.3713 42.4961C94.5604 42.8243 94.655 43.2222 94.655 43.6896C94.655 44.6132 94.3212 45.3393 93.6535 45.8679C92.9858 46.3965 92.0622 46.6608 90.8826 46.6608Z" fill="#161616"/>
</g>
<defs>
<filter id="filter0_d_515_1492" x="-32.7594" y="-28.7595" width="190.127" height="134.76" filterUnits="userSpaceOnUse" color-interpolation-filters="sRGB">
<feFlood flood-opacity="0" result="BackgroundImageFix"/>
<feColorMatrix in="SourceAlpha" type="matrix" values="0 0 0 0 0 0 0 0 0 0 0 0 0 0 0 0 0 0 127 0" result="hardAlpha"/>
<feOffset dy="4"/>
<feGaussianBlur stdDeviation="21"/>
<feComposite in2="hardAlpha" operator="out"/>
<feColorMatrix type="matrix" values="0 0 0 0 0.101961 0 0 0 0 0.101961 0 0 0 0 0.101961 0 0 0 0.16 0"/>
<feBlend mode="normal" in2="BackgroundImageFix" result="effect1_dropShadow_515_1492"/>
<feBlend mode="normal" in="SourceGraphic" in2="effect1_dropShadow_515_1492" result="shape"/>
</filter>
</defs>
</svg>
