<?xml version="1.0" encoding="UTF-8" standalone="no"?><svg width="115" height="62" viewBox="0 0 115 62" fill="none" xmlns="http://www.w3.org/2000/svg">
<g filter="url(#filter0_d_515_1488)">
<path d="M103.746 10.1873C104.987 9.85471 106.123 10.9905 105.79 12.2317L101.923 26.6657C101.59 27.9069 100.039 28.3227 99.1302 27.414L88.5637 16.8476C87.6551 15.939 88.0708 14.3875 89.312 14.0549L103.746 10.1873Z" fill="#FFB32C"/>
<rect y="22.9204" width="90.9731" height="38.3923" rx="19.1962" fill="#FFB32C"/>
<path d="M20.5425 48.9204L24.2148 36.9019H27.6033L31.2757 48.9204H28.9387L25.667 38.3208H26.101L22.8794 48.9204H20.5425ZM22.7459 46.4166V44.2966H29.089V46.4166H22.7459ZM32.7716 48.9204V36.6516H35.0417V48.9204H32.7716ZM37.5439 38.6546V36.6516H39.814V38.6546H37.5439ZM37.5439 48.9204V39.9066H39.814V48.9204H37.5439ZM45.6713 49.1708C44.5363 49.1708 43.6182 48.9148 42.9171 48.4029C42.2216 47.8855 41.7987 47.1566 41.6485 46.2163L43.9687 45.8657C44.0633 46.2886 44.272 46.6197 44.5947 46.8589C44.923 47.0982 45.3375 47.2178 45.8383 47.2178C46.25 47.2178 46.5672 47.1399 46.7897 46.9841C47.0123 46.8227 47.1236 46.6002 47.1236 46.3164C47.1236 46.1384 47.0791 45.9965 46.99 45.8908C46.901 45.7795 46.7007 45.671 46.3891 45.5653C46.0831 45.4595 45.6046 45.3204 44.9536 45.1479C44.2191 44.9588 43.6321 44.7473 43.1925 44.5136C42.753 44.2799 42.4358 44.0017 42.2411 43.679C42.0463 43.3507 41.949 42.9557 41.949 42.4939C41.949 41.9152 42.0964 41.4144 42.3913 40.9916C42.6862 40.5631 43.1007 40.2348 43.6349 40.0067C44.1746 39.773 44.8089 39.6562 45.5378 39.6562C46.2444 39.6562 46.8704 39.7647 47.4157 39.9817C47.961 40.1987 48.4005 40.5075 48.7344 40.9081C49.0738 41.3087 49.2824 41.7817 49.3603 42.3269L47.0401 42.7443C47.0012 42.4104 46.8565 42.1461 46.6061 41.9514C46.3557 41.7566 46.0163 41.6426 45.5879 41.6092C45.1706 41.5814 44.8339 41.637 44.578 41.7761C44.3276 41.9152 44.2024 42.1155 44.2024 42.377C44.2024 42.5328 44.2553 42.6636 44.361 42.7693C44.4723 42.875 44.6976 42.9835 45.037 43.0948C45.382 43.2061 45.905 43.3507 46.6061 43.5288C47.2905 43.7068 47.8386 43.9155 48.2503 44.1548C48.6676 44.3884 48.9709 44.6722 49.16 45.0061C49.3492 45.3343 49.4438 45.7322 49.4438 46.1996C49.4438 47.1232 49.11 47.8493 48.4423 48.3779C47.7746 48.9065 46.8509 49.1708 45.6713 49.1708ZM55.1672 49.1708C54.2602 49.1708 53.4646 48.9677 52.7802 48.5615C52.0958 48.1553 51.5616 47.5962 51.1777 46.8839C50.7994 46.1662 50.6102 45.3427 50.6102 44.4135C50.6102 43.4732 50.8049 42.6469 51.1944 41.9347C51.5839 41.2169 52.1208 40.6577 52.8052 40.2571C53.4896 39.8565 54.2769 39.6562 55.1672 39.6562C56.0741 39.6562 56.8698 39.8593 57.5542 40.2654C58.2441 40.6716 58.7811 41.2336 59.165 41.9514C59.5489 42.6636 59.7409 43.4843 59.7409 44.4135C59.7409 45.3483 59.5461 46.1745 59.1566 46.8923C58.7727 47.6045 58.2358 48.1637 57.5458 48.5699C56.8615 48.9705 56.0686 49.1708 55.1672 49.1708ZM55.1672 47.0509C55.8961 47.0509 56.4386 46.806 56.7947 46.3164C57.1564 45.8212 57.3372 45.1869 57.3372 44.4135C57.3372 43.6123 57.1536 42.9724 56.7863 42.4939C56.4247 42.0154 55.885 41.7761 55.1672 41.7761C54.672 41.7761 54.2658 41.8874 53.9486 42.1099C53.6315 42.3325 53.395 42.6413 53.2392 43.0364C53.089 43.4314 53.0139 43.8905 53.0139 44.4135C53.0139 45.2203 53.1947 45.8629 53.5564 46.3414C53.9236 46.8144 54.4605 47.0509 55.1672 47.0509ZM67.5521 48.9204V44.6639C67.5521 44.458 67.541 44.1965 67.5187 43.8793C67.4965 43.5566 67.4269 43.2339 67.3101 42.9112C67.1932 42.5885 67.0013 42.3186 66.7342 42.1016C66.4727 41.8846 66.0999 41.7761 65.6158 41.7761C65.4211 41.7761 65.2124 41.8067 64.9898 41.8679C64.7673 41.9291 64.5586 42.0487 64.3639 42.2268C64.1691 42.3993 64.0078 42.6552 63.8798 42.9946C63.7574 43.334 63.6962 43.7847 63.6962 44.3467L62.3942 43.7291C62.3942 43.0169 62.5388 42.3492 62.8282 41.726C63.1175 41.1028 63.5515 40.5993 64.1302 40.2154C64.7144 39.8314 65.4489 39.6395 66.3336 39.6395C67.0402 39.6395 67.6161 39.7591 68.0612 39.9984C68.5063 40.2376 68.8513 40.5409 69.0961 40.9081C69.3465 41.2753 69.5246 41.6593 69.6303 42.0599C69.736 42.4549 69.8 42.8166 69.8223 43.1449C69.8445 43.4732 69.8556 43.7124 69.8556 43.8626V48.9204H67.5521ZM61.3926 48.9204V39.9066H63.4124V42.8945H63.6962V48.9204H61.3926Z" fill="#161616"/>
</g>
<defs>
<filter id="filter0_d_515_1488" x="-35.0539" y="-21.5867" width="175.957" height="121.292" filterUnits="userSpaceOnUse" color-interpolation-filters="sRGB">
<feFlood flood-opacity="0" result="BackgroundImageFix"/>
<feColorMatrix in="SourceAlpha" type="matrix" values="0 0 0 0 0 0 0 0 0 0 0 0 0 0 0 0 0 0 127 0" result="hardAlpha"/>
<feOffset dy="3.33846"/>
<feGaussianBlur stdDeviation="17.5269"/>
<feComposite in2="hardAlpha" operator="out"/>
<feColorMatrix type="matrix" values="0 0 0 0 0.101961 0 0 0 0 0.101961 0 0 0 0 0.101961 0 0 0 0.16 0"/>
<feBlend mode="normal" in2="BackgroundImageFix" result="effect1_dropShadow_515_1488"/>
<feBlend mode="normal" in="SourceGraphic" in2="effect1_dropShadow_515_1488" result="shape"/>
</filter>
</defs>
</svg>
