<?xml version="1.0" encoding="UTF-8" standalone="no"?><svg width="34" height="34" viewBox="0 0 34 34" fill="none" xmlns="http://www.w3.org/2000/svg">
<path d="M16.6667 30C17.1667 30 17.6458 29.9722 18.1042 29.9167C18.5625 29.8611 19.0278 29.7778 19.5 29.6667L17.5 26.6667H11.6667V25C11.6667 24.0833 11.9931 23.2986 12.6458 22.6458C13.2986 21.9931 14.0833 21.6667 15 21.6667H18.3333V16.6667H15C14.5278 16.6667 14.1319 16.5069 13.8125 16.1875C13.4931 15.8681 13.3333 15.4722 13.3333 15V11.6667H12.5833C11.8611 11.6667 11.25 11.4236 10.75 10.9375C10.25 10.4514 10 9.84722 10 9.125C10 8.875 10.0347 8.625 10.1042 8.375C10.1736 8.125 10.2778 7.88889 10.4167 7.66667L13 3.875C10.1944 4.68056 7.88194 6.25 6.0625 8.58333C4.24306 10.9167 3.33333 13.6111 3.33333 16.6667H5V15C5 14.5278 5.15972 14.1319 5.47917 13.8125C5.79861 13.4931 6.19444 13.3333 6.66667 13.3333H10C10.4722 13.3333 10.8681 13.4931 11.1875 13.8125C11.5069 14.1319 11.6667 14.5278 11.6667 15V16.6667C11.6667 17.1389 11.5069 17.5347 11.1875 17.8542C10.8681 18.1736 10.4722 18.3333 10 18.3333V20C10 20.9167 9.67361 21.7014 9.02083 22.3542C8.36806 23.0069 7.58333 23.3333 6.66667 23.3333H5.125C6.29167 25.3333 7.88889 26.9444 9.91667 28.1667C11.9444 29.3889 14.1944 30 16.6667 30ZM29.3333 20.75C29.5556 20.1111 29.7222 19.4514 29.8333 18.7708C29.9444 18.0903 30 17.3889 30 16.6667C30 13.5556 29.0556 10.8125 27.1667 8.4375C25.2778 6.0625 22.8889 4.5 20 3.75V8.33333C20.9167 8.33333 21.7014 8.65972 22.3542 9.3125C23.0069 9.96528 23.3333 10.75 23.3333 11.6667V15C23.8611 15 24.3333 15.0625 24.75 15.1875C25.1667 15.3125 25.5694 15.5694 25.9583 15.9583L29.3333 20.75ZM16.6667 33.3333C14.3611 33.3333 12.1944 32.8958 10.1667 32.0208C8.13889 31.1458 6.375 29.9583 4.875 28.4583C3.375 26.9583 2.1875 25.1944 1.3125 23.1667C0.4375 21.1389 0 18.9722 0 16.6667C0 14.3611 0.4375 12.1944 1.3125 10.1667C2.1875 8.13889 3.375 6.375 4.875 4.875C6.375 3.375 8.13889 2.1875 10.1667 1.3125C12.1944 0.4375 14.3611 0 16.6667 0C18.9722 0 21.1389 0.4375 23.1667 1.3125C25.1944 2.1875 26.9583 3.375 28.4583 4.875C29.9583 6.375 31.1458 8.13889 32.0208 10.1667C32.8958 12.1944 33.3333 14.3611 33.3333 16.6667C33.3333 18.9722 32.8958 21.1389 32.0208 23.1667C31.1458 25.1944 29.9583 26.9583 28.4583 28.4583C26.9583 29.9583 25.1944 31.1458 23.1667 32.0208C21.1389 32.8958 18.9722 33.3333 16.6667 33.3333Z" fill="#FFB32C"/>
</svg>
