<?xml version="1.0" encoding="UTF-8" standalone="no"?><svg width="713" height="1168" viewBox="0 0 713 1168" fill="none" xmlns="http://www.w3.org/2000/svg">
<path opacity="0.4" fill-rule="evenodd" clip-rule="evenodd" d="M71.3399 62.0898V0H72.3399V62.0898H71.3399ZM152.262 62.0898V0H153.262V62.0898H152.262ZM233.184 62.0898V0H234.184V62.0898H233.184ZM314.106 62.0898V0H315.106V62.0898H314.106ZM395.028 62.0898V0H396.028V62.0898H395.028ZM475.95 62.0898V0H476.95V62.0898H475.95ZM556.872 62.0898V0H557.872V62.0898H556.872ZM637.794 62.0898V0H638.794V62.0898H637.794ZM627.926 63.2445L567.435 2.75704L568.142 2.04991L628.633 62.5374L627.926 63.2445ZM61.4712 63.2445L0.979981 2.75704L1.68707 2.04991L62.1783 62.5374L61.4712 63.2445ZM223.315 63.2445L162.824 2.75704L163.531 2.04991L224.022 62.5374L223.315 63.2445ZM708.848 63.2445L648.357 2.75704L649.064 2.04991L709.555 62.5374L708.848 63.2445ZM142.393 63.2445L81.9021 2.75704L82.6092 2.04991L143.1 62.5374L142.393 63.2445ZM304.237 63.2445L243.746 2.75704L244.453 2.04991L304.945 62.5374L304.237 63.2445ZM385.16 63.2445L324.668 2.75704L325.375 2.04991L385.867 62.5374L385.16 63.2445ZM466.082 63.2445L405.59 2.75704L406.297 2.04991L466.789 62.5374L466.082 63.2445ZM547.004 63.2445L486.512 2.75704L487.22 2.04991L547.711 62.5374L547.004 63.2445ZM65.4302 72.6043H3.33654V71.6043H65.4302V72.6043ZM146.352 72.6043H84.2586V71.6043H146.352V72.6043ZM227.274 72.6043H165.181V71.6043H227.274V72.6043ZM308.196 72.6043H246.103V71.6043H308.196V72.6043ZM389.119 72.6043H327.025V71.6043H389.119V72.6043ZM470.041 72.6043H407.947V71.6043H470.041V72.6043ZM550.963 72.6043H488.869V71.6043H550.963V72.6043ZM631.885 72.6043H569.791V71.6043H631.885V72.6043ZM712.807 72.6043H650.713V71.6043H712.807V72.6043ZM71.3399 140.603V78.5136H72.3399V140.603H71.3399ZM152.262 140.603V78.5136H153.262V140.603H152.262ZM233.184 140.603V78.5136H234.184V140.603H233.184ZM314.106 140.603V78.5136H315.106V140.603H314.106ZM395.028 140.603V78.5136H396.028V140.603H395.028ZM475.95 140.603V78.5136H476.95V140.603H475.95ZM556.872 140.603V78.5136H557.872V140.603H556.872ZM637.794 140.603V78.5136H638.794V140.603H637.794ZM61.4712 141.758L0.979981 81.2706L1.68707 80.5635L62.1783 141.051L61.4712 141.758ZM142.393 141.758L81.9021 81.2706L82.6092 80.5635L143.1 141.051L142.393 141.758ZM223.315 141.758L162.824 81.2706L163.531 80.5635L224.022 141.051L223.315 141.758ZM304.237 141.758L243.746 81.2706L244.453 80.5635L304.945 141.051L304.237 141.758ZM385.16 141.758L324.668 81.2706L325.375 80.5635L385.867 141.051L385.16 141.758ZM466.082 141.758L405.59 81.2706L406.297 80.5635L466.789 141.051L466.082 141.758ZM547.004 141.758L486.512 81.2706L487.22 80.5635L547.711 141.051L547.004 141.758ZM627.926 141.758L567.435 81.2706L568.142 80.5635L628.633 141.051L627.926 141.758ZM708.848 141.758L648.357 81.2706L649.064 80.5635L709.555 141.051L708.848 141.758ZM65.4302 151.118H3.33654V150.118H65.4302V151.118ZM146.352 151.118H84.2586V150.118H146.352V151.118ZM227.274 151.118H165.181V150.118H227.274V151.118ZM308.196 151.118H246.103V150.118H308.196V151.118ZM389.119 151.118H327.025V150.118H389.119V151.118ZM470.041 151.118H407.947V150.118H470.041V151.118ZM550.963 151.118H488.869V150.118H550.963V151.118ZM631.885 151.118H569.791V150.118H631.885V151.118ZM712.807 151.118H650.713V150.118H712.807V151.118ZM71.3399 219.117V157.027H72.3399V219.117H71.3399ZM152.262 219.117V157.027H153.262V219.117H152.262ZM233.184 219.117V157.027H234.184V219.117H233.184ZM314.106 219.117V157.027H315.106V219.117H314.106ZM395.028 219.117V157.027H396.028V219.117H395.028ZM475.95 219.117V157.027H476.95V219.117H475.95ZM556.872 219.117V157.027H557.872V219.117H556.872ZM637.794 219.117V157.027H638.794V219.117H637.794ZM61.4712 220.272L0.979981 159.784L1.68707 159.077L62.1783 219.564L61.4712 220.272ZM142.393 220.272L81.9021 159.784L82.6092 159.077L143.1 219.564L142.393 220.272ZM223.315 220.272L162.824 159.784L163.531 159.077L224.022 219.564L223.315 220.272ZM304.237 220.272L243.746 159.784L244.453 159.077L304.945 219.564L304.237 220.272ZM385.16 220.272L324.668 159.784L325.375 159.077L385.867 219.564L385.16 220.272ZM466.082 220.272L405.59 159.784L406.297 159.077L466.789 219.564L466.082 220.272ZM547.004 220.272L486.512 159.784L487.22 159.077L547.711 219.564L547.004 220.272ZM627.926 220.272L567.435 159.784L568.142 159.077L628.633 219.564L627.926 220.272ZM708.848 220.272L648.357 159.784L649.064 159.077L709.555 219.564L708.848 220.272ZM65.4302 229.631H3.33654V228.631H65.4302V229.631ZM146.352 229.631H84.2586V228.631H146.352V229.631ZM227.274 229.631H165.181V228.631H227.274V229.631ZM308.196 229.631H246.103V228.631H308.196V229.631ZM389.119 229.631H327.025V228.631H389.119V229.631ZM470.041 229.631H407.947V228.631H470.041V229.631ZM550.963 229.631H488.869V228.631H550.963V229.631ZM631.885 229.631H569.791V228.631H631.885V229.631ZM712.807 229.631H650.713V228.631H712.807V229.631ZM71.3399 297.63V235.541H72.3399V297.63H71.3399ZM152.262 297.63V235.541H153.262V297.63H152.262ZM233.184 297.63V235.541H234.184V297.63H233.184ZM314.106 297.63V235.541H315.106V297.63H314.106ZM395.028 297.63V235.541H396.028V297.63H395.028ZM475.95 297.63V235.541H476.95V297.63H475.95ZM556.872 297.63V235.541H557.872V297.63H556.872ZM637.794 297.63V235.541H638.794V297.63H637.794ZM61.4712 298.785L0.979981 238.298L1.68707 237.591L62.1783 298.078L61.4712 298.785ZM142.393 298.785L81.9021 238.298L82.6092 237.591L143.1 298.078L142.393 298.785ZM223.315 298.785L162.824 238.298L163.531 237.591L224.022 298.078L223.315 298.785ZM304.237 298.785L243.746 238.298L244.453 237.591L304.945 298.078L304.237 298.785ZM385.16 298.785L324.668 238.298L325.375 237.591L385.867 298.078L385.16 298.785ZM466.082 298.785L405.59 238.298L406.297 237.591L466.789 298.078L466.082 298.785ZM547.004 298.785L486.512 238.298L487.22 237.591L547.711 298.078L547.004 298.785ZM627.926 298.785L567.435 238.298L568.142 237.591L628.633 298.078L627.926 298.785ZM708.848 298.785L648.357 238.298L649.064 237.591L709.555 298.078L708.848 298.785ZM65.4302 308.145H3.33654V307.145H65.4302V308.145ZM146.352 308.145H84.2586V307.145H146.352V308.145ZM227.274 308.145H165.181V307.145H227.274V308.145ZM308.196 308.145H246.103V307.145H308.196V308.145ZM389.119 308.145H327.025V307.145H389.119V308.145ZM470.041 308.145H407.947V307.145H470.041V308.145ZM550.963 308.145H488.869V307.145H550.963V308.145ZM631.885 308.145H569.791V307.145H631.885V308.145ZM712.807 308.145H650.713V307.145H712.807V308.145ZM71.3399 376.144V314.054H72.3399V376.144H71.3399ZM152.262 376.144V314.054H153.262V376.144H152.262ZM233.184 376.144V314.054H234.184V376.144H233.184ZM314.106 376.144V314.054H315.106V376.144H314.106ZM395.028 376.144V314.054H396.028V376.144H395.028ZM475.95 376.144V314.054H476.95V376.144H475.95ZM556.872 376.144V314.054H557.872V376.144H556.872ZM637.794 376.144V314.054H638.794V376.144H637.794ZM61.4712 377.299L0.979981 316.811L1.68707 316.104L62.1783 376.592L61.4712 377.299ZM142.393 377.299L81.9021 316.811L82.6092 316.104L143.1 376.592L142.393 377.299ZM223.315 377.299L162.824 316.811L163.531 316.104L224.022 376.592L223.315 377.299ZM304.237 377.299L243.746 316.811L244.453 316.104L304.945 376.592L304.237 377.299ZM385.16 377.299L324.668 316.811L325.375 316.104L385.867 376.592L385.16 377.299ZM466.082 377.299L405.59 316.811L406.297 316.104L466.789 376.592L466.082 377.299ZM547.004 377.299L486.512 316.811L487.22 316.104L547.711 376.592L547.004 377.299ZM627.926 377.299L567.435 316.811L568.142 316.104L628.633 376.592L627.926 377.299ZM708.848 377.299L648.357 316.811L649.064 316.104L709.555 376.592L708.848 377.299ZM65.4302 386.659H3.33654V385.659H65.4302V386.659ZM146.352 386.659H84.2586V385.659H146.352V386.659ZM227.274 386.659H165.181V385.659H227.274V386.659ZM308.196 386.659H246.103V385.659H308.196V386.659ZM389.119 386.659H327.025V385.659H389.119V386.659ZM470.041 386.659H407.947V385.659H470.041V386.659ZM550.963 386.659H488.869V385.659H550.963V386.659ZM631.885 386.659H569.791V385.659H631.885V386.659ZM712.807 386.659H650.713V385.659H712.807V386.659ZM71.3399 454.658V392.568H72.3399V454.658H71.3399ZM152.262 454.658V392.568H153.262V454.658H152.262ZM233.184 454.658V392.568H234.184V454.658H233.184ZM314.106 454.658V392.568H315.106V454.658H314.106ZM395.028 454.658V392.568H396.028V454.658H395.028ZM475.95 454.658V392.568H476.95V454.658H475.95ZM556.872 454.658V392.568H557.872V454.658H556.872ZM637.794 454.658V392.568H638.794V454.658H637.794ZM61.4712 455.812L0.979981 395.325L1.68707 394.618L62.1783 455.105L61.4712 455.812ZM142.393 455.812L81.9021 395.325L82.6091 394.618L143.1 455.105L142.393 455.812ZM223.315 455.812L162.824 395.325L163.531 394.618L224.022 455.105L223.315 455.812ZM304.237 455.812L243.746 395.325L244.453 394.618L304.945 455.105L304.237 455.812ZM385.16 455.812L324.668 395.325L325.375 394.618L385.867 455.105L385.16 455.812ZM466.082 455.812L405.59 395.325L406.297 394.618L466.789 455.105L466.082 455.812ZM547.004 455.812L486.512 395.325L487.22 394.618L547.711 455.105L547.004 455.812ZM627.926 455.812L567.435 395.325L568.142 394.618L628.633 455.105L627.926 455.812ZM708.848 455.812L648.357 395.325L649.064 394.618L709.555 455.105L708.848 455.812ZM65.4302 465.172H3.33654V464.172H65.4302V465.172ZM146.352 465.172H84.2586V464.172H146.352V465.172ZM227.274 465.172H165.181V464.172H227.274V465.172ZM308.196 465.172H246.103V464.172H308.196V465.172ZM389.119 465.172H327.025V464.172H389.119V465.172ZM470.041 465.172H407.947V464.172H470.041V465.172ZM550.963 465.172H488.869V464.172H550.963V465.172ZM631.885 465.172H569.791V464.172H631.885V465.172ZM712.807 465.172H650.713V464.172H712.807V465.172ZM71.3399 533.171V471.081H72.3399V533.171H71.3399ZM152.262 533.171V471.081H153.262V533.171H152.262ZM233.184 533.171V471.081H234.184V533.171H233.184ZM314.106 533.171V471.081H315.106V533.171H314.106ZM395.028 533.171V471.081H396.028V533.171H395.028ZM475.95 533.171V471.081H476.95V533.171H475.95ZM556.872 533.171V471.081H557.872V533.171H556.872ZM637.794 533.171V471.081H638.794V533.171H637.794ZM61.4712 534.326L0.979981 473.838L1.68707 473.131L62.1783 533.619L61.4712 534.326ZM142.393 534.326L81.9021 473.838L82.6092 473.131L143.1 533.619L142.393 534.326ZM223.315 534.326L162.824 473.838L163.531 473.131L224.022 533.619L223.315 534.326ZM304.237 534.326L243.746 473.838L244.453 473.131L304.945 533.619L304.237 534.326ZM385.16 534.326L324.668 473.838L325.375 473.131L385.867 533.619L385.16 534.326ZM466.082 534.326L405.59 473.838L406.297 473.131L466.789 533.619L466.082 534.326ZM547.004 534.326L486.512 473.838L487.22 473.131L547.711 533.619L547.004 534.326ZM627.926 534.326L567.435 473.838L568.142 473.131L628.633 533.619L627.926 534.326ZM708.848 534.326L648.357 473.838L649.064 473.131L709.555 533.619L708.848 534.326ZM65.4302 543.686H3.33654V542.686H65.4302V543.686ZM146.352 543.686H84.2586V542.686H146.352V543.686ZM227.274 543.686H165.181V542.686H227.274V543.686ZM308.196 543.686H246.103V542.686H308.196V543.686ZM389.119 543.686H327.025V542.686H389.119V543.686ZM470.041 543.686H407.947V542.686H470.041V543.686ZM550.963 543.686H488.869V542.686H550.963V543.686ZM631.885 543.686H569.791V542.686H631.885V543.686ZM712.807 543.686H650.713V542.686H712.807V543.686ZM71.3399 611.685V549.595H72.3399V611.685H71.3399ZM152.262 611.685V549.595H153.262V611.685H152.262ZM233.184 611.685V549.595H234.184V611.685H233.184ZM314.106 611.685V549.595H315.106V611.685H314.106ZM395.028 611.685V549.595H396.028V611.685H395.028ZM475.95 611.685V549.595H476.95V611.685H475.95ZM556.872 611.685V549.595H557.872V611.685H556.872ZM637.794 611.685V549.595H638.794V611.685H637.794ZM61.4712 612.839L0.97998 552.352L1.68707 551.645L62.1783 612.132L61.4712 612.839ZM142.393 612.839L81.9021 552.352L82.6092 551.645L143.1 612.132L142.393 612.839ZM223.315 612.839L162.824 552.352L163.531 551.645L224.022 612.132L223.315 612.839ZM304.237 612.839L243.746 552.352L244.453 551.645L304.945 612.132L304.237 612.839ZM385.16 612.839L324.668 552.352L325.375 551.645L385.867 612.132L385.16 612.839ZM466.082 612.839L405.59 552.352L406.297 551.645L466.789 612.132L466.082 612.839ZM547.004 612.839L486.512 552.352L487.22 551.645L547.711 612.132L547.004 612.839ZM627.926 612.839L567.435 552.352L568.142 551.645L628.633 612.132L627.926 612.839ZM708.848 612.839L648.357 552.352L649.064 551.645L709.555 612.132L708.848 612.839ZM65.4302 627.426H3.33654V626.426H65.4302V627.426ZM146.352 627.426H84.2586V626.426H146.352V627.426ZM227.274 627.426H165.181V626.426H227.274V627.426ZM308.196 627.426H246.103V626.426H308.196V627.426ZM389.119 627.426H327.025V626.426H389.119V627.426ZM470.041 627.426H407.947V626.426H470.041V627.426ZM550.963 627.426H488.869V626.426H550.963V627.426ZM631.885 627.426H569.791V626.426H631.885V627.426ZM712.807 627.426H650.713V626.426H712.807V627.426ZM71.3399 695.425V633.335H72.3399V695.425H71.3399ZM152.262 695.425V633.335H153.262V695.425H152.262ZM233.184 695.425V633.335H234.184V695.425H233.184ZM314.106 695.425V633.335H315.106V695.425H314.106ZM395.028 695.425V633.335H396.028V695.425H395.028ZM475.95 695.425V633.335H476.95V695.425H475.95ZM556.872 695.425V633.335H557.872V695.425H556.872ZM637.794 695.425V633.335H638.794V695.425H637.794ZM61.4712 696.58L0.979981 636.092L1.68707 635.385L62.1783 695.872L61.4712 696.58ZM142.393 696.58L81.9021 636.092L82.6091 635.385L143.1 695.872L142.393 696.58ZM223.315 696.58L162.824 636.092L163.531 635.385L224.022 695.872L223.315 696.58ZM304.237 696.58L243.746 636.092L244.453 635.385L304.945 695.872L304.237 696.58ZM385.16 696.58L324.668 636.092L325.375 635.385L385.867 695.872L385.16 696.58ZM466.082 696.58L405.59 636.092L406.297 635.385L466.789 695.872L466.082 696.58ZM547.004 696.58L486.512 636.092L487.22 635.385L547.711 695.872L547.004 696.58ZM627.926 696.58L567.435 636.092L568.142 635.385L628.633 695.872L627.926 696.58ZM708.848 696.58L648.357 636.092L649.064 635.385L709.555 695.872L708.848 696.58ZM65.4302 705.939H3.33654V704.939H65.4302V705.939ZM146.352 705.939H84.2586V704.939H146.352V705.939ZM227.274 705.939H165.181V704.939H227.274V705.939ZM308.196 705.939H246.103V704.939H308.196V705.939ZM389.119 705.939H327.025V704.939H389.119V705.939ZM470.041 705.939H407.947V704.939H470.041V705.939ZM550.963 705.939H488.869V704.939H550.963V705.939ZM631.885 705.939H569.791V704.939H631.885V705.939ZM712.807 705.939H650.713V704.939H712.807V705.939ZM71.3399 773.938V711.849H72.3399V773.938H71.3399ZM152.262 773.938V711.849H153.262V773.938H152.262ZM233.184 773.938V711.849H234.184V773.938H233.184ZM314.106 773.938V711.849H315.106V773.938H314.106ZM395.028 773.938V711.849H396.028V773.938H395.028ZM475.95 773.938V711.849H476.95V773.938H475.95ZM556.872 773.938V711.849H557.872V773.938H556.872ZM637.794 773.938V711.849H638.794V773.938H637.794ZM61.4712 775.093L0.979981 714.606L1.68707 713.899L62.1783 774.386L61.4712 775.093ZM142.393 775.093L81.9021 714.606L82.6092 713.899L143.1 774.386L142.393 775.093ZM223.315 775.093L162.824 714.606L163.531 713.899L224.022 774.386L223.315 775.093ZM304.237 775.093L243.746 714.606L244.453 713.899L304.945 774.386L304.237 775.093ZM385.16 775.093L324.668 714.606L325.375 713.899L385.867 774.386L385.16 775.093ZM466.082 775.093L405.59 714.606L406.297 713.899L466.789 774.386L466.082 775.093ZM547.004 775.093L486.512 714.606L487.22 713.899L547.711 774.386L547.004 775.093ZM627.926 775.093L567.435 714.606L568.142 713.899L628.633 774.386L627.926 775.093ZM708.848 775.093L648.357 714.606L649.064 713.899L709.555 774.386L708.848 775.093ZM65.4302 784.453H3.33654V783.453H65.4302V784.453ZM146.352 784.453H84.2586V783.453H146.352V784.453ZM227.274 784.453H165.181V783.453H227.274V784.453ZM308.196 784.453H246.103V783.453H308.196V784.453ZM389.119 784.453H327.025V783.453H389.119V784.453ZM470.041 784.453H407.947V783.453H470.041V784.453ZM550.963 784.453H488.869V783.453H550.963V784.453ZM631.885 784.453H569.791V783.453H631.885V784.453ZM712.807 784.453H650.713V783.453H712.807V784.453ZM71.3399 852.452V790.362H72.3399V852.452H71.3399ZM152.262 852.452V790.362H153.262V852.452H152.262ZM233.184 852.452V790.362H234.184V852.452H233.184ZM314.106 852.452V790.362H315.106V852.452H314.106ZM395.028 852.452V790.362H396.028V852.452H395.028ZM475.95 852.452V790.362H476.95V852.452H475.95ZM556.872 852.452V790.362H557.872V852.452H556.872ZM637.794 852.452V790.362H638.794V852.452H637.794ZM61.4712 853.607L0.979981 793.119L1.68707 792.412L62.1783 852.9L61.4712 853.607ZM142.393 853.607L81.9021 793.119L82.6091 792.412L143.1 852.9L142.393 853.607ZM223.315 853.607L162.824 793.119L163.531 792.412L224.022 852.9L223.315 853.607ZM304.237 853.607L243.746 793.119L244.453 792.412L304.945 852.9L304.237 853.607ZM385.16 853.607L324.668 793.119L325.375 792.412L385.867 852.9L385.16 853.607ZM466.082 853.607L405.59 793.119L406.297 792.412L466.789 852.9L466.082 853.607ZM547.004 853.607L486.512 793.119L487.22 792.412L547.711 852.9L547.004 853.607ZM627.926 853.607L567.435 793.119L568.142 792.412L628.633 852.9L627.926 853.607ZM708.848 853.607L648.357 793.119L649.064 792.412L709.555 852.9L708.848 853.607ZM65.4302 861.5H3.33654V860.5H65.4302V861.5ZM146.352 861.5H84.2586V860.5H146.352V861.5ZM227.274 861.5H165.181V860.5H227.274V861.5ZM308.196 861.5H246.103V860.5H308.196V861.5ZM389.119 861.5H327.025V860.5H389.119V861.5ZM470.041 861.5H407.947V860.5H470.041V861.5ZM550.963 861.5H488.869V860.5H550.963V861.5ZM631.885 861.5H569.791V860.5H631.885V861.5ZM712.807 861.5H650.713V860.5H712.807V861.5ZM71.3399 929.499V867.409H72.3399V929.499H71.3399ZM152.262 929.499V867.409H153.262V929.499H152.262ZM233.184 929.499V867.409H234.184V929.499H233.184ZM314.106 929.499V867.409H315.106V929.499H314.106ZM395.028 929.499V867.409H396.028V929.499H395.028ZM475.95 929.499V867.409H476.95V929.499H475.95ZM556.872 929.499V867.409H557.872V929.499H556.872ZM637.794 929.499V867.409H638.794V929.499H637.794ZM61.4712 930.654L0.97998 870.166L1.68707 869.459L62.1783 929.947L61.4712 930.654ZM142.393 930.654L81.9021 870.166L82.6092 869.459L143.1 929.947L142.393 930.654ZM223.315 930.654L162.824 870.166L163.531 869.459L224.022 929.947L223.315 930.654ZM304.237 930.654L243.746 870.166L244.453 869.459L304.945 929.947L304.237 930.654ZM385.16 930.654L324.668 870.166L325.375 869.459L385.867 929.947L385.16 930.654ZM466.082 930.654L405.59 870.166L406.297 869.459L466.789 929.947L466.082 930.654ZM547.004 930.654L486.512 870.166L487.22 869.459L547.711 929.947L547.004 930.654ZM627.926 930.654L567.435 870.166L568.142 869.459L628.633 929.947L627.926 930.654ZM708.848 930.654L648.357 870.166L649.064 869.459L709.555 929.947L708.848 930.654ZM65.4302 941.24H3.33654V940.24H65.4302V941.24ZM146.352 941.24H84.2586V940.24H146.352V941.24ZM227.274 941.24H165.181V940.24H227.274V941.24ZM308.196 941.24H246.103V940.24H308.196V941.24ZM389.119 941.24H327.025V940.24H389.119V941.24ZM470.041 941.24H407.947V940.24H470.041V941.24ZM550.963 941.24H488.869V940.24H550.963V941.24ZM631.885 941.24H569.791V940.24H631.885V941.24ZM712.807 941.24H650.713V940.24H712.807V941.24ZM71.3399 1009.24V947.15H72.3399V1009.24H71.3399ZM152.262 1009.24V947.15H153.262V1009.24H152.262ZM233.184 1009.24V947.15H234.184V1009.24H233.184ZM314.106 1009.24V947.15H315.106V1009.24H314.106ZM395.028 1009.24V947.15H396.028V1009.24H395.028ZM475.95 1009.24V947.15H476.95V1009.24H475.95ZM556.872 1009.24V947.15H557.872V1009.24H556.872ZM637.794 1009.24V947.15H638.794V1009.24H637.794ZM61.4712 1010.39L0.979981 949.907L1.68707 949.199L62.1783 1009.69L61.4712 1010.39ZM142.393 1010.39L81.9021 949.907L82.6091 949.199L143.1 1009.69L142.393 1010.39ZM223.315 1010.39L162.824 949.907L163.531 949.199L224.022 1009.69L223.315 1010.39ZM304.237 1010.39L243.746 949.907L244.453 949.199L304.945 1009.69L304.237 1010.39ZM385.16 1010.39L324.668 949.907L325.375 949.199L385.867 1009.69L385.16 1010.39ZM466.082 1010.39L405.59 949.907L406.297 949.199L466.789 1009.69L466.082 1010.39ZM547.004 1010.39L486.512 949.907L487.22 949.199L547.711 1009.69L547.004 1010.39ZM627.926 1010.39L567.435 949.907L568.142 949.199L628.633 1009.69L627.926 1010.39ZM708.848 1010.39L648.357 949.907L649.064 949.199L709.555 1009.69L708.848 1010.39ZM65.4302 1019.75H3.33654V1018.75H65.4302V1019.75ZM146.352 1019.75H84.2586V1018.75H146.352V1019.75ZM227.274 1019.75H165.181V1018.75H227.274V1019.75ZM308.196 1019.75H246.103V1018.75H308.196V1019.75ZM389.119 1019.75H327.025V1018.75H389.119V1019.75ZM470.041 1019.75H407.947V1018.75H470.041V1019.75ZM550.963 1019.75H488.869V1018.75H550.963V1019.75ZM631.885 1019.75H569.791V1018.75H631.885V1019.75ZM712.807 1019.75H650.713V1018.75H712.807V1019.75ZM71.3399 1087.75V1025.66H72.3399V1087.75H71.3399ZM152.262 1087.75V1025.66H153.262V1087.75H152.262ZM233.184 1087.75V1025.66H234.184V1087.75H233.184ZM314.106 1087.75V1025.66H315.106V1087.75H314.106ZM395.028 1087.75V1025.66H396.028V1087.75H395.028ZM475.95 1087.75V1025.66H476.95V1087.75H475.95ZM556.872 1087.75V1025.66H557.872V1087.75H556.872ZM637.794 1087.75V1025.66H638.794V1087.75H637.794ZM61.4712 1088.91L0.979981 1028.42L1.68707 1027.71L62.1783 1088.2L61.4712 1088.91ZM142.393 1088.91L81.9021 1028.42L82.6091 1027.71L143.1 1088.2L142.393 1088.91ZM223.315 1088.91L162.824 1028.42L163.531 1027.71L224.022 1088.2L223.315 1088.91ZM304.237 1088.91L243.746 1028.42L244.453 1027.71L304.945 1088.2L304.237 1088.91ZM385.16 1088.91L324.668 1028.42L325.375 1027.71L385.867 1088.2L385.16 1088.91ZM466.082 1088.91L405.59 1028.42L406.297 1027.71L466.789 1088.2L466.082 1088.91ZM547.004 1088.91L486.512 1028.42L487.22 1027.71L547.711 1088.2L547.004 1088.91ZM627.926 1088.91L567.435 1028.42L568.142 1027.71L628.633 1088.2L627.926 1088.91ZM708.848 1088.91L648.357 1028.42L649.064 1027.71L709.555 1088.2L708.848 1088.91ZM65.4302 1098.27H3.33654V1097.27H65.4302V1098.27ZM146.352 1098.27H84.2586V1097.27H146.352V1098.27ZM227.274 1098.27H165.181V1097.27H227.274V1098.27ZM308.196 1098.27H246.103V1097.27H308.196V1098.27ZM389.119 1098.27H327.025V1097.27H389.119V1098.27ZM470.041 1098.27H407.947V1097.27H470.041V1098.27ZM550.963 1098.27H488.869V1097.27H550.963V1098.27ZM631.885 1098.27H569.791V1097.27H631.885V1098.27ZM712.807 1098.27H650.713V1097.27H712.807V1098.27ZM71.3399 1166.27V1104.18H72.3399V1166.27H71.3399ZM152.262 1166.27V1104.18H153.262V1166.27H152.262ZM233.184 1166.27V1104.18H234.184V1166.27H233.184ZM314.106 1166.27V1104.18H315.106V1166.27H314.106ZM395.028 1166.27V1104.18H396.028V1166.27H395.028ZM475.95 1166.27V1104.18H476.95V1166.27H475.95ZM556.872 1166.27V1104.18H557.872V1166.27H556.872ZM637.794 1166.27V1104.18H638.794V1166.27H637.794ZM61.4712 1167.42L0.97998 1106.93L1.68707 1106.23L62.1783 1166.71L61.4712 1167.42ZM142.393 1167.42L81.9021 1106.93L82.6092 1106.23L143.1 1166.71L142.393 1167.42ZM223.315 1167.42L162.824 1106.93L163.531 1106.23L224.022 1166.71L223.315 1167.42ZM304.237 1167.42L243.746 1106.93L244.453 1106.23L304.945 1166.71L304.237 1167.42ZM385.16 1167.42L324.668 1106.93L325.375 1106.23L385.867 1166.71L385.16 1167.42ZM466.082 1167.42L405.59 1106.93L406.297 1106.23L466.789 1166.71L466.082 1167.42ZM547.004 1167.42L486.512 1106.93L487.22 1106.23L547.711 1166.71L547.004 1167.42ZM627.926 1167.42L567.435 1106.93L568.142 1106.23L628.633 1166.71L627.926 1167.42ZM708.848 1167.42L648.357 1106.93L649.064 1106.23L709.555 1166.71L708.848 1167.42Z" fill="url(#paint0_linear_305_982)"/>
<defs>
<linearGradient id="paint0_linear_305_982" x1="509.362" y1="1291.81" x2="1062.13" y2="1079.74" gradientUnits="userSpaceOnUse">
<stop stop-color="#161616"/>
<stop offset="1" stop-color="#777777"/>
</linearGradient>
</defs>
</svg>
