<?xml version="1.0" encoding="UTF-8" standalone="no"?><svg width="806" height="622" viewBox="0 0 806 622" fill="none" xmlns="http://www.w3.org/2000/svg">
<path d="M3.03103 551.236H65.993V550.236H3.03103V551.236ZM3.03103 471.631H65.993V470.631H3.03103V471.631ZM3.03103 392.026H65.993V391.026H3.03103V392.026ZM3.03103 312.422H65.993V311.422H3.03103V312.422ZM3.03103 232.817H65.993V231.817H3.03103V232.817ZM3.03103 153.212H65.993V152.212H3.03103V153.212ZM3.03103 73.6066H65.993V72.6066H3.03103V73.6066ZM85.0847 551.236H148.047V550.236H85.0847V551.236ZM85.0847 471.631H148.047V470.631H85.0847V471.631ZM85.0847 392.026H148.047V391.026H85.0847V392.026ZM85.0847 312.422H148.047V311.422H85.0847V312.422ZM85.0847 232.817H148.047V231.817H85.0847V232.817ZM85.0847 153.212H148.047V152.212H85.0847V153.212ZM85.0847 73.6066H148.047V72.6066H85.0847V73.6066ZM167.138 551.236H230.1V550.236H167.138V551.236ZM167.138 471.631H230.1V470.631H167.138V471.631ZM167.138 392.026H230.1V391.026H167.138V392.026ZM167.138 312.422H230.1V311.422H167.138V312.422ZM167.138 232.817H230.1V231.817H167.138V232.817ZM167.138 153.212H230.1V152.212H167.138V153.212ZM167.138 73.6066H230.1V72.6066H167.138V73.6066ZM249.192 551.236H312.154V550.236H249.192V551.236ZM249.192 471.631H312.154V470.631H249.192V471.631ZM249.192 392.026H312.154V391.026H249.192V392.026ZM249.192 312.422H312.154V311.422H249.192V312.422ZM249.192 232.817H312.154V231.817H249.192V232.817ZM249.192 153.212H312.154V152.212H249.192V153.212ZM249.192 73.6066H312.154V72.6066H249.192V73.6066ZM331.246 551.236H394.208V550.236H331.246V551.236ZM331.246 471.631H394.208V470.631H331.246V471.631ZM331.246 392.026H394.208V391.026H331.246V392.026ZM331.246 312.422H394.208V311.422H331.246V312.422ZM331.246 232.817H394.208V231.817H331.246V232.817ZM331.246 153.212H394.208V152.212H331.246V153.212ZM331.246 73.6066H394.208V72.6066H331.246V73.6066ZM413.299 551.236H476.261V550.236H413.299V551.236ZM413.299 471.631H476.261V470.631H413.299V471.631ZM413.299 392.026H476.261V391.026H413.299V392.026ZM413.299 312.422H476.261V311.422H413.299V312.422ZM413.299 232.817H476.261V231.817H413.299V232.817ZM413.299 153.212H476.261V152.212H413.299V153.212ZM413.299 73.6066H476.261V72.6066H413.299V73.6066ZM495.353 551.236H558.315V550.236H495.353V551.236ZM495.353 471.631H558.315V470.631H495.353V471.631ZM495.353 392.026H558.315V391.026H495.353V392.026ZM495.353 312.422H558.315V311.422H495.353V312.422ZM495.353 232.817H558.315V231.817H495.353V232.817ZM495.353 153.212H558.315V152.212H495.353V153.212ZM495.353 73.6066H558.315V72.6066H495.353V73.6066ZM577.406 551.236H640.369V550.236H577.406V551.236ZM577.406 471.631H640.369V470.631H577.406V471.631ZM577.406 392.026H640.369V391.026H577.406V392.026ZM577.406 312.422H640.369V311.422H577.406V312.422ZM577.406 232.817H640.369V231.817H577.406V232.817ZM577.406 153.212H640.369V152.212H577.406V153.212ZM577.406 73.6066H640.369V72.6066H577.406V73.6066ZM659.46 551.236H722.422V550.236H659.46V551.236ZM659.46 471.631H722.422V470.631H659.46V471.631ZM659.46 392.026H722.422V391.026H659.46V392.026ZM659.46 312.422H722.422V311.422H659.46V312.422ZM659.46 232.817H722.422V231.817H659.46V232.817ZM659.46 153.212H722.422V152.212H659.46V153.212ZM659.46 73.6066H722.422V72.6066H659.46V73.6066ZM71.9923 557.235V620.188H72.9923V557.235H71.9923ZM71.9923 477.63V540.583H72.9923V477.63H71.9923ZM71.9923 398.025V460.978H72.9923V398.025H71.9923ZM71.9923 318.42V381.373H72.9923V318.42H71.9923ZM71.9923 238.815V301.768H72.9923V238.815H71.9923ZM71.9923 159.21V222.163H72.9923V159.21H71.9923ZM71.9923 79.605V142.558H72.9923V79.605H71.9923ZM71.9923 0V62.9529H72.9923V0H71.9923ZM154.046 557.235V620.188H155.046V557.235H154.046ZM154.046 477.63V540.583H155.046V477.63H154.046ZM154.046 398.025V460.978H155.046V398.025H154.046ZM154.046 318.42V381.373H155.046V318.42H154.046ZM154.046 238.815V301.768H155.046V238.815H154.046ZM154.046 159.21V222.163H155.046V159.21H154.046ZM154.046 79.605V142.558H155.046V79.605H154.046ZM154.046 0V62.9529H155.046V0H154.046ZM236.1 557.235V620.188H237.1V557.235H236.1ZM236.1 477.63V540.583H237.1V477.63H236.1ZM236.1 398.025V460.978H237.1V398.025H236.1ZM236.1 318.42V381.373H237.1V318.42H236.1ZM236.1 238.815V301.768H237.1V238.815H236.1ZM236.1 159.21V222.163H237.1V159.21H236.1ZM236.1 79.605V142.558H237.1V79.605H236.1ZM236.1 0V62.9529H237.1V0H236.1ZM318.153 557.235V620.188H319.153V557.235H318.153ZM318.153 477.63V540.583H319.153V477.63H318.153ZM318.153 398.025V460.978H319.153V398.025H318.153ZM318.153 318.42V381.373H319.153V318.42H318.153ZM318.153 238.815V301.768H319.153V238.815H318.153ZM318.153 159.21V222.163H319.153V159.21H318.153ZM318.153 79.605V142.558H319.153V79.605H318.153ZM318.153 0V62.9529H319.153V0H318.153ZM400.207 557.235V620.188H401.207V557.235H400.207ZM400.207 477.63V540.583H401.207V477.63H400.207ZM400.207 398.025V460.978H401.207V398.025H400.207ZM400.207 318.42V381.373H401.207V318.42H400.207ZM400.207 238.815V301.768H401.207V238.815H400.207ZM400.207 159.21V222.163H401.207V159.21H400.207ZM400.207 79.605V142.558H401.207V79.605H400.207ZM400.207 0V62.9529H401.207V0H400.207ZM482.26 557.235V620.188H483.26V557.235H482.26ZM482.26 477.63V540.583H483.26V477.63H482.26ZM482.26 398.025V460.978H483.26V398.025H482.26ZM482.26 318.42V381.373H483.26V318.42H482.26ZM482.26 238.815V301.768H483.26V238.815H482.26ZM482.26 159.21V222.163H483.26V159.21H482.26ZM482.26 79.605V142.558H483.26V79.605H482.26ZM482.26 0V62.9529H483.26V0H482.26ZM564.314 557.235V620.188H565.314V557.235H564.314ZM564.314 477.63V540.583H565.314V477.63H564.314ZM564.314 398.025V460.978H565.314V398.025H564.314ZM564.314 318.42V381.373H565.314V318.42H564.314ZM564.314 238.815V301.768H565.314V238.815H564.314ZM564.314 159.21V222.163H565.314V159.21H564.314ZM564.314 79.605V142.558H565.314V79.605H564.314ZM564.314 0V62.9529H565.314V0H564.314ZM646.368 557.235V620.188H647.368V557.235H646.368ZM646.368 477.63V540.583H647.368V477.63H646.368ZM646.368 398.025V460.978H647.368V398.025H646.368ZM646.368 318.42V381.373H647.368V318.42H646.368ZM646.368 238.815V301.768H647.368V238.815H646.368ZM646.368 159.21V222.163H647.368V159.21H646.368ZM646.368 79.605V142.558H647.368V79.605H646.368ZM646.368 0V62.9529H647.368V0H646.368ZM0.646472 560.025L61.9836 621.354L62.6907 620.646L1.35353 559.318L0.646472 560.025ZM0.646472 480.42L61.9836 541.749L62.6907 541.041L1.35353 479.713L0.646472 480.42ZM0.646472 400.815L61.9836 462.144L62.6907 461.436L1.35353 400.108L0.646472 400.815ZM0.646472 321.21L61.9836 382.539L62.6907 381.832L1.35353 320.503L0.646472 321.21ZM0.646472 241.605L61.9836 302.934L62.6907 302.227L1.35353 240.898L0.646472 241.605ZM0.646472 162L61.9836 223.329L62.6907 222.622L1.35353 161.293L0.646472 162ZM0.646472 82.3954L61.9836 143.724L62.6907 143.017L1.35353 81.6883L0.646472 82.3954ZM0.646472 2.79047L61.9836 64.1188L62.6907 63.4116L1.35353 2.08331L0.646472 2.79047ZM82.7001 560.025L144.037 621.354L144.744 620.646L83.4072 559.318L82.7001 560.025ZM82.7001 480.42L144.037 541.749L144.744 541.041L83.4072 479.713L82.7001 480.42ZM82.7001 400.815L144.037 462.144L144.744 461.436L83.4072 400.108L82.7001 400.815ZM82.7001 321.21L144.037 382.539L144.744 381.832L83.4072 320.503L82.7001 321.21ZM82.7001 241.605L144.037 302.934L144.744 302.227L83.4072 240.898L82.7001 241.605ZM82.7001 162L144.037 223.329L144.744 222.622L83.4072 161.293L82.7001 162ZM82.7001 82.3954L144.037 143.724L144.744 143.017L83.4072 81.6883L82.7001 82.3954ZM82.7001 2.79047L144.037 64.1188L144.744 63.4116L83.4072 2.08331L82.7001 2.79047ZM164.754 560.025L226.091 621.354L226.798 620.646L165.461 559.318L164.754 560.025ZM164.754 480.42L226.091 541.749L226.798 541.041L165.461 479.713L164.754 480.42ZM164.754 400.815L226.091 462.144L226.798 461.436L165.461 400.108L164.754 400.815ZM164.754 321.21L226.091 382.539L226.798 381.832L165.461 320.503L164.754 321.21ZM164.754 241.605L226.091 302.934L226.798 302.227L165.461 240.898L164.754 241.605ZM164.754 162L226.091 223.329L226.798 222.622L165.461 161.293L164.754 162ZM164.754 82.3954L226.091 143.724L226.798 143.017L165.461 81.6883L164.754 82.3954ZM164.754 2.79047L226.091 64.1188L226.798 63.4116L165.461 2.08331L164.754 2.79047ZM246.807 560.025L308.145 621.354L308.852 620.646L247.514 559.318L246.807 560.025ZM246.807 480.42L308.145 541.749L308.852 541.041L247.514 479.713L246.807 480.42ZM246.807 400.815L308.145 462.144L308.852 461.436L247.514 400.108L246.807 400.815ZM246.807 321.21L308.145 382.539L308.852 381.832L247.514 320.503L246.807 321.21ZM246.807 241.605L308.145 302.934L308.852 302.227L247.514 240.898L246.807 241.605ZM246.807 162L308.145 223.329L308.852 222.622L247.514 161.293L246.807 162ZM246.807 82.3954L308.145 143.724L308.852 143.017L247.514 81.6883L246.807 82.3954ZM246.807 2.79047L308.145 64.1188L308.852 63.4116L247.514 2.08331L246.807 2.79047ZM328.861 560.025L390.198 621.354L390.905 620.646L329.568 559.318L328.861 560.025ZM328.861 480.42L390.198 541.749L390.905 541.041L329.568 479.713L328.861 480.42ZM328.861 400.815L390.198 462.144L390.905 461.436L329.568 400.108L328.861 400.815ZM328.861 321.21L390.198 382.539L390.905 381.832L329.568 320.503L328.861 321.21ZM328.861 241.605L390.198 302.934L390.905 302.227L329.568 240.898L328.861 241.605ZM328.861 162L390.198 223.329L390.905 222.622L329.568 161.293L328.861 162ZM328.861 82.3954L390.198 143.724L390.905 143.017L329.568 81.6883L328.861 82.3954ZM328.861 2.79047L390.198 64.1188L390.905 63.4116L329.568 2.08331L328.861 2.79047ZM410.915 560.025L472.252 621.354L472.959 620.646L411.622 559.318L410.915 560.025ZM410.915 480.42L472.252 541.749L472.959 541.041L411.622 479.713L410.915 480.42ZM410.915 400.815L472.252 462.144L472.959 461.436L411.622 400.108L410.915 400.815ZM410.915 321.21L472.252 382.539L472.959 381.832L411.622 320.503L410.915 321.21ZM410.915 241.605L472.252 302.934L472.959 302.227L411.622 240.898L410.915 241.605ZM410.915 162L472.252 223.329L472.959 222.622L411.622 161.293L410.915 162ZM410.915 82.3954L472.252 143.724L472.959 143.017L411.622 81.6883L410.915 82.3954ZM410.915 2.79047L472.252 64.1188L472.959 63.4116L411.622 2.08331L410.915 2.79047ZM492.968 560.025L554.305 621.354L555.013 620.646L493.675 559.318L492.968 560.025ZM492.968 480.42L554.305 541.749L555.013 541.041L493.675 479.713L492.968 480.42ZM492.968 400.815L554.305 462.144L555.013 461.436L493.675 400.108L492.968 400.815ZM492.968 321.21L554.305 382.539L555.013 381.832L493.675 320.503L492.968 321.21ZM492.968 241.605L554.305 302.934L555.013 302.227L493.675 240.898L492.968 241.605ZM492.968 162L554.305 223.329L555.013 222.622L493.675 161.293L492.968 162ZM492.968 82.3954L554.305 143.724L555.013 143.017L493.675 81.6883L492.968 82.3954ZM492.968 2.79047L554.305 64.1188L555.013 63.4116L493.675 2.08331L492.968 2.79047ZM575.022 560.025L636.359 621.354L637.066 620.646L575.729 559.318L575.022 560.025ZM575.022 480.42L636.359 541.749L637.066 541.041L575.729 479.713L575.022 480.42ZM575.022 400.815L636.359 462.144L637.066 461.436L575.729 400.108L575.022 400.815ZM575.022 321.21L636.359 382.539L637.066 381.832L575.729 320.503L575.022 321.21ZM575.022 241.605L636.359 302.934L637.066 302.227L575.729 240.898L575.022 241.605ZM575.022 162L636.359 223.329L637.066 222.622L575.729 161.293L575.022 162ZM575.022 82.3954L636.359 143.724L637.066 143.017L575.729 81.6883L575.022 82.3954ZM575.022 2.79047L636.359 64.1188L637.066 63.4116L575.729 2.08331L575.022 2.79047ZM657.076 560.025L718.413 621.354L719.12 620.646L657.783 559.318L657.076 560.025ZM657.076 480.42L718.413 541.749L719.12 541.041L657.783 479.713L657.076 480.42ZM657.076 400.815L718.413 462.144L719.12 461.436L657.783 400.108L657.076 400.815ZM657.076 321.21L718.413 382.539L719.12 381.832L657.783 320.503L657.076 321.21ZM657.076 241.605L718.413 302.934L719.12 302.227L657.783 240.898L657.076 241.605ZM657.076 162L718.413 223.329L719.12 222.622L657.783 161.293L657.076 162ZM657.076 82.3954L718.413 143.724L719.12 143.017L657.783 81.6883L657.076 82.3954ZM657.076 2.79047L718.413 64.1188L719.12 63.4116L657.783 2.08331L657.076 2.79047ZM743.038 551.236H806V550.236H743.038V551.236ZM743.038 471.631H806V470.631H743.038V471.631ZM743.038 392.026H806V391.026H743.038V392.026ZM743.038 312.422H806V311.422H743.038V312.422ZM743.038 232.817H806V231.817H743.038V232.817ZM743.038 153.212H806V152.212H743.038V153.212ZM743.038 73.6066H806V72.6066H743.038V73.6066ZM729.946 557.235V620.188H730.946V557.235H729.946ZM729.946 477.63V540.583H730.946V477.63H729.946ZM729.946 398.025V460.978H730.946V398.025H729.946ZM729.946 318.42V381.373H730.946V318.42H729.946ZM729.946 238.815V301.768H730.946V238.815H729.946ZM729.946 159.21V222.163H730.946V159.21H729.946ZM729.946 79.605V142.558H730.946V79.605H729.946ZM729.946 0V62.9529H730.946V0H729.946ZM740.654 560.025L801.991 621.354L802.698 620.646L741.361 559.318L740.654 560.025ZM740.654 480.42L801.991 541.749L802.698 541.041L741.361 479.713L740.654 480.42ZM740.654 400.815L801.991 462.144L802.698 461.436L741.361 400.108L740.654 400.815ZM740.654 321.21L801.991 382.539L802.698 381.832L741.361 320.503L740.654 321.21ZM740.654 241.605L801.991 302.934L802.698 302.227L741.361 240.898L740.654 241.605ZM740.654 162L801.991 223.329L802.698 222.622L741.361 161.293L740.654 162ZM740.654 82.3954L801.991 143.724L802.698 143.017L741.361 81.6883L740.654 82.3954ZM740.654 2.79047L801.991 64.1188L802.698 63.4116L741.361 2.08331L740.654 2.79047Z" fill="url(#paint0_linear_305_987)"/>
<defs>
<linearGradient id="paint0_linear_305_987" x1="231.241" y1="444.469" x2="684.601" y2="19.6625" gradientUnits="userSpaceOnUse">
<stop stop-color="#1A1A1A"/>
<stop offset="1" stop-color="#7A3EEE"/>
</linearGradient>
</defs>
</svg>
