<?xml version="1.0" encoding="UTF-8" standalone="no"?><svg width="1440" height="348" viewBox="0 0 1440 348" fill="none" xmlns="http://www.w3.org/2000/svg">
<path d="M0 1.4043H69.5172M69.5172 1.4043V70.9215M69.5172 1.4043L2.6069 68.3146M0 93.6388H69.5172M69.5172 93.6388V163.156M69.5172 93.6388L2.6069 160.549M0 185.873H69.5172M69.5172 185.873V255.391M69.5172 185.873L2.6069 252.784M0 278.108H69.5172M69.5172 278.108V347.625M69.5172 278.108L2.6069 345.018M91.3655 1.4043H160.883M160.883 1.4043V70.9215M160.883 1.4043L93.9724 68.3146M91.3655 93.6388H160.883M160.883 93.6388V163.156M160.883 93.6388L93.9724 160.549M91.3655 185.873H160.883M160.883 185.873V255.391M160.883 185.873L93.9724 252.784M91.3655 278.108H160.883M160.883 278.108V347.625M160.883 278.108L93.9724 345.018M182.731 1.4043H252.248M252.248 1.4043V70.9215M252.248 1.4043L185.338 68.3146M182.731 93.6388H252.248M252.248 93.6388V163.156M252.248 93.6388L185.338 160.549M182.731 185.873H252.248M252.248 185.873V255.391M252.248 185.873L185.338 252.784M182.731 278.108H252.248M252.248 278.108V347.625M252.248 278.108L185.338 345.018M274.097 1.4043H343.614M343.614 1.4043V70.9215M343.614 1.4043L276.703 68.3146M274.097 93.6388H343.614M343.614 93.6388V163.156M343.614 93.6388L276.703 160.549M274.097 185.873H343.614M343.614 185.873V255.391M343.614 185.873L276.703 252.784M274.097 278.108H343.614M343.614 278.108V347.625M343.614 278.108L276.703 345.018M365.462 1.4043H434.979M434.979 1.4043V70.9215M434.979 1.4043L368.069 68.3146M365.462 93.6388H434.979M434.979 93.6388V163.156M434.979 93.6388L368.069 160.549M365.462 185.873H434.979M434.979 185.873V255.391M434.979 185.873L368.069 252.784M365.462 278.108H434.979M434.979 278.108V347.625M434.979 278.108L368.069 345.018M456.828 1.4043H526.345M526.345 1.4043V70.9215M526.345 1.4043L459.434 68.3146M456.828 93.6388H526.345M526.345 93.6388V163.156M526.345 93.6388L459.434 160.549M456.828 185.873H526.345M526.345 185.873V255.391M526.345 185.873L459.434 252.784M456.828 278.108H526.345M526.345 278.108V347.625M526.345 278.108L459.434 345.018M548.193 1.4043H617.71M617.71 1.4043V70.9215M617.71 1.4043L550.8 68.3146M548.193 93.6388H617.71M617.71 93.6388V163.156M617.71 93.6388L550.8 160.549M548.193 185.873H617.71M617.71 185.873V255.391M617.71 185.873L550.8 252.784M548.193 278.108H617.71M617.71 278.108V347.625M617.71 278.108L550.8 345.018M639.559 1.4043H709.076M709.076 1.4043V70.9215M709.076 1.4043L642.166 68.3146M639.559 93.6388H709.076M709.076 93.6388V163.156M709.076 93.6388L642.166 160.549M639.559 185.873H709.076M709.076 185.873V255.391M709.076 185.873L642.166 252.784M639.559 278.108H709.076M709.076 278.108V347.625M709.076 278.108L642.166 345.018M730.924 1.4043H800.441M800.441 1.4043V70.9215M800.441 1.4043L733.531 68.3146M730.924 93.6388H800.441M800.441 93.6388V163.156M800.441 93.6388L733.531 160.549M730.924 185.873H800.441M800.441 185.873V255.391M800.441 185.873L733.531 252.784M730.924 278.108H800.441M800.441 278.108V347.625M800.441 278.108L733.531 345.018M822.29 1.4043H891.807M891.807 1.4043V70.9215M891.807 1.4043L824.897 68.3146M822.29 93.6388H891.807M891.807 93.6388V163.156M891.807 93.6388L824.897 160.549M822.29 185.873H891.807M891.807 185.873V255.391M891.807 185.873L824.897 252.784M822.29 278.108H891.807M891.807 278.108V347.625M891.807 278.108L824.897 345.018M913.655 1.4043H983.172M983.172 1.4043V70.9215M983.172 1.4043L916.262 68.3146M913.655 93.6388H983.172M983.172 93.6388V163.156M983.172 93.6388L916.262 160.549M913.655 185.873H983.172M983.172 185.873V255.391M983.172 185.873L916.262 252.784M913.655 278.108H983.172M983.172 278.108V347.625M983.172 278.108L916.262 345.018M1005.02 1.4043H1074.54M1074.54 1.4043V70.9215M1074.54 1.4043L1007.63 68.3146M1005.02 93.6388H1074.54M1074.54 93.6388V163.156M1074.54 93.6388L1007.63 160.549M1005.02 185.873H1074.54M1074.54 185.873V255.391M1074.54 185.873L1007.63 252.784M1005.02 278.108H1074.54M1074.54 278.108V347.625M1074.54 278.108L1007.63 345.018M1096.39 1.4043H1165.9M1165.9 1.4043V70.9215M1165.9 1.4043L1098.99 68.3146M1096.39 93.6388H1165.9M1165.9 93.6388V163.156M1165.9 93.6388L1098.99 160.549M1096.39 185.873H1165.9M1165.9 185.873V255.391M1165.9 185.873L1098.99 252.784M1096.39 278.108H1165.9M1165.9 278.108V347.625M1165.9 278.108L1098.99 345.018M1187.75 1.4043H1257.27M1257.27 1.4043V70.9215M1257.27 1.4043L1190.36 68.3146M1187.75 93.6388H1257.27M1257.27 93.6388V163.156M1257.27 93.6388L1190.36 160.549M1187.75 185.873H1257.27M1257.27 185.873V255.391M1257.27 185.873L1190.36 252.784M1187.75 278.108H1257.27M1257.27 278.108V347.625M1257.27 278.108L1190.36 345.018M1279.12 1.4043H1348.63M1348.63 1.4043V70.9215M1348.63 1.4043L1281.72 68.3146M1279.12 93.6388H1348.63M1348.63 93.6388V163.156M1348.63 93.6388L1281.72 160.549M1279.12 185.873H1348.63M1348.63 185.873V255.391M1348.63 185.873L1281.72 252.784M1279.12 278.108H1348.63M1348.63 278.108V347.625M1348.63 278.108L1281.72 345.018M1370.48 1.4043H1440M1440 1.4043V70.9215M1440 1.4043L1373.09 68.3146M1370.48 93.6388H1440M1440 93.6388V163.156M1440 93.6388L1373.09 160.549M1370.48 185.873H1440M1440 185.873V255.391M1440 185.873L1373.09 252.784M1370.48 278.108H1440M1440 278.108V347.625M1440 278.108L1373.09 345.018" stroke="#161616" stroke-width="2"/>
</svg>
