<?xml version="1.0" encoding="UTF-8" standalone="no"?><svg width="613" height="460" viewBox="0 0 613 460" fill="none" xmlns="http://www.w3.org/2000/svg">
<path d="M-0.784141 -63V-8.56579M-0.784141 13.6523V68.0865M-0.784141 90.3045V144.739M-0.784141 166.957V221.391M-0.784141 243.609V298.043M-0.784141 320.261V374.695M-0.784141 396.913V451.348M-0.784141 473.566V528M76.0175 -63V-8.56579M76.0175 13.6523V68.0865M76.0175 90.3045V144.739M76.0175 166.957V221.391M76.0175 243.609V298.043M76.0175 320.261V374.695M76.0175 396.913V451.348M76.0175 473.566V528M152.819 -63V-8.56579M152.819 13.6523V68.0865M152.819 90.3045V144.739M152.819 166.957V221.391M152.819 243.609V298.043M152.819 320.261V374.695M152.819 396.913V451.348M152.819 473.566V528M229.621 -63L229.621 -8.56579M458.397 -63V-8.56579M229.621 13.6523L229.621 68.0865M458.397 13.6523V68.0865M229.621 90.3045L229.621 144.739M458.397 90.3045V144.739M229.621 166.957L229.621 221.391M458.397 166.957V221.391M229.621 243.609L229.621 298.043M458.397 243.609V298.043M229.621 320.261L229.621 374.695M458.397 320.261V374.695M229.621 396.913L229.621 451.348M458.397 396.913V451.348M229.621 473.566L229.621 528M458.397 473.566V528M306.423 -63L306.422 -8.56579M535.198 -63V-8.56579M306.423 13.6523L306.422 68.0865M535.198 13.6523V68.0865M306.423 90.3045L306.422 144.739M535.198 90.3045V144.739M306.423 166.957L306.422 221.391M535.198 166.957V221.391M306.423 243.609L306.422 298.043M535.198 243.609V298.043M306.423 320.261L306.422 374.695M535.198 320.261V374.695M306.423 396.913L306.422 451.348M535.198 396.913V451.348M306.423 473.566L306.422 528M535.198 473.566V528M383.224 -63L383.224 -8.56579M612 -63V-8.56579M383.224 13.6523L383.224 68.0865M612 13.6523V68.0865M383.224 90.3045L383.224 144.739M612 90.3045V144.739M383.224 166.957L383.224 221.391M612 166.957V221.391M383.224 243.609L383.224 298.043M612 243.609V298.043M383.224 320.261L383.224 374.695M612 320.261V374.695M383.224 396.913L383.224 451.348M612 396.913V451.348M383.224 473.566L383.224 528M612 473.566V528M-10.4597 1.0909L-65 1.0909M-10.4597 77.7432H-65M-10.4597 154.395H-65M-10.4597 231.048H-65M-10.4597 307.7H-65M-10.4597 384.352H-65M-10.4597 461.005H-65M66.342 1.0909L11.8017 1.0909M66.342 77.7432H11.8017M66.342 154.395H11.8017M66.342 231.048H11.8017M66.342 307.7H11.8017M66.342 384.352H11.8017M66.342 461.005H11.8017M143.144 1.0909L88.6033 1.0909M143.144 77.7432H88.6033M143.144 154.395H88.6033M143.144 231.048H88.6033M143.144 307.7H88.6033M143.144 384.352H88.6033M143.144 461.005H88.6033M219.945 1.09082L165.405 1.09082M448.721 1.09082L394.181 1.09082M219.945 77.7432H165.405M448.721 77.7432H394.181M219.945 154.395H165.405M448.721 154.395H394.181M219.945 231.048H165.405M448.721 231.048H394.181M219.945 307.7H165.405M448.721 307.7H394.181M219.945 384.352H165.405M448.721 384.352H394.181M219.945 461.004H165.405M448.721 461.004H394.181M296.747 1.09082L242.207 1.09082M525.523 1.09082L470.982 1.09082M296.747 77.7432H242.207M525.523 77.7432H470.982M296.747 154.395H242.207M525.523 154.395H470.982M296.747 231.048H242.207M525.523 231.048H470.982M296.747 307.7H242.207M525.523 307.7H470.982M296.747 384.352H242.207M525.523 384.352H470.982M296.747 461.004H242.207M525.523 461.004H470.982M373.549 1.09082L319.008 1.09082M602.325 1.09082L547.784 1.09082M373.549 77.7432H319.008M602.325 77.7432H547.784M373.549 154.395H319.008M602.325 154.395H547.784M373.549 231.048H319.008M602.325 231.048H547.784M373.549 307.7H319.008M602.325 307.7H547.784M373.549 384.352H319.008M602.325 384.352H547.784M373.549 461.004H319.008M602.325 461.004H547.784" stroke="url(#paint0_linear_515_2041)"/>
<defs>
<linearGradient id="paint0_linear_515_2041" x1="96.6699" y1="133.682" x2="595.526" y2="428.6" gradientUnits="userSpaceOnUse">
<stop stop-color="#7A3EEE"/>
<stop offset="1" stop-color="white" stop-opacity="0.01"/>
</linearGradient>
</defs>
</svg>
