<?xml version="1.0" encoding="UTF-8" standalone="no"?><svg width="712" height="1171" viewBox="0 0 712 1171" fill="none" xmlns="http://www.w3.org/2000/svg">
<path opacity="0.4" fill-rule="evenodd" clip-rule="evenodd" d="M641.467 1108.31V1170.4H640.467V1108.31H641.467ZM560.545 1108.31V1170.4H559.545V1108.31H560.545ZM479.623 1108.31L479.623 1170.4H478.623L478.623 1108.31H479.623ZM398.701 1108.31V1170.4H397.701V1108.31H398.701ZM317.779 1108.31V1170.4H316.779V1108.31H317.779ZM236.857 1108.31V1170.4H235.857V1108.31H236.857ZM155.935 1108.31V1170.4H154.935V1108.31H155.935ZM75.0125 1108.31V1170.4H74.0125V1108.31H75.0125ZM651.336 1107.15L711.827 1167.64L711.12 1168.35L650.629 1107.86L651.336 1107.15ZM570.414 1107.15L630.905 1167.64L630.198 1168.35L569.707 1107.86L570.414 1107.15ZM489.492 1107.15L549.983 1167.64L549.276 1168.35L488.784 1107.86L489.492 1107.15ZM408.569 1107.15L469.061 1167.64L468.354 1168.35L407.862 1107.86L408.569 1107.15ZM327.647 1107.15L388.139 1167.64L387.432 1168.35L326.94 1107.86L327.647 1107.15ZM246.725 1107.15L307.217 1167.64L306.509 1168.35L246.018 1107.86L246.725 1107.15ZM84.8811 1107.15L145.372 1167.64L144.665 1168.35L84.174 1107.86L84.8811 1107.15ZM3.95902 1107.15L64.4503 1167.64L63.7433 1168.35L3.25199 1107.86L3.95902 1107.15ZM165.803 1107.15L226.294 1167.64L225.587 1168.35L165.096 1107.86L165.803 1107.15ZM647.377 1097.79H709.47V1098.79H647.377V1097.79ZM566.455 1097.79H628.548V1098.79H566.455V1097.79ZM485.533 1097.79H547.626V1098.79H485.533V1097.79ZM404.61 1097.79H466.704V1098.79H404.61V1097.79ZM323.688 1097.79H385.782V1098.79H323.688V1097.79ZM242.766 1097.79H304.86V1098.79H242.766V1097.79ZM161.844 1097.79H223.938V1098.79H161.844V1097.79ZM80.9221 1097.79H143.016V1098.79H80.9221V1097.79ZM3.33388e-05 1097.79H62.0938V1098.79H3.32514e-05L3.33388e-05 1097.79ZM641.467 1029.79V1091.88H640.467V1029.79H641.467ZM560.545 1029.79V1091.88H559.545V1029.79H560.545ZM479.623 1029.79V1091.88H478.623V1029.79H479.623ZM398.701 1029.79V1091.88H397.701V1029.79H398.701ZM317.779 1029.79V1091.88H316.779V1029.79H317.779ZM236.857 1029.79L236.857 1091.88H235.857L235.857 1029.79H236.857ZM155.935 1029.79L155.935 1091.88H154.935L154.935 1029.79H155.935ZM75.0126 1029.79L75.0125 1091.88H74.0125L74.0126 1029.79H75.0126ZM651.336 1028.64L711.827 1089.13L711.12 1089.83L650.629 1029.35L651.336 1028.64ZM570.414 1028.64L630.905 1089.13L630.198 1089.83L569.707 1029.35L570.414 1028.64ZM489.492 1028.64L549.983 1089.13L549.276 1089.83L488.784 1029.35L489.492 1028.64ZM408.569 1028.64L469.061 1089.13L468.354 1089.83L407.862 1029.35L408.569 1028.64ZM327.647 1028.64L388.139 1089.13L387.432 1089.83L326.94 1029.35L327.647 1028.64ZM246.725 1028.64L307.217 1089.13L306.509 1089.83L246.018 1029.35L246.725 1028.64ZM165.803 1028.64L226.294 1089.13L225.587 1089.83L165.096 1029.35L165.803 1028.64ZM84.8811 1028.64L145.372 1089.13L144.665 1089.83L84.174 1029.35L84.8811 1028.64ZM3.95902 1028.64L64.4503 1089.13L63.7433 1089.83L3.25199 1029.35L3.95902 1028.64ZM647.377 1019.28L709.47 1019.28V1020.28L647.377 1020.28V1019.28ZM566.455 1019.28H628.548V1020.28H566.455V1019.28ZM485.533 1019.28H547.626V1020.28H485.533V1019.28ZM404.61 1019.28H466.704V1020.28H404.61V1019.28ZM323.688 1019.28H385.782V1020.28H323.688V1019.28ZM242.766 1019.28H304.86V1020.28H242.766V1019.28ZM161.844 1019.28H223.938V1020.28H161.844V1019.28ZM80.9222 1019.28H143.016V1020.28H80.9222V1019.28ZM4.02027e-05 1019.28L62.0938 1019.28V1020.28L4.01153e-05 1020.28L4.02027e-05 1019.28ZM641.467 947.252V1009.34H640.467V947.252H641.467ZM560.545 947.252V1009.34H559.545V947.252H560.545ZM479.623 947.252V1009.34H478.623V947.252H479.623ZM398.701 947.252L398.701 1009.34H397.701L397.701 947.252H398.701ZM317.779 947.252L317.779 1009.34H316.779L316.779 947.252H317.779ZM236.857 947.252V1009.34H235.857V947.252H236.857ZM155.935 947.252V1009.34H154.935V947.252H155.935ZM75.0126 947.252L75.0126 1009.34H74.0126L74.0126 947.252H75.0126ZM651.336 946.097L711.827 1006.58L711.12 1007.29L650.629 946.804L651.336 946.097ZM570.414 946.097L630.905 1006.58L630.198 1007.29L569.707 946.804L570.414 946.097ZM489.492 946.097L549.983 1006.58L549.276 1007.29L488.784 946.804L489.492 946.097ZM408.569 946.097L469.061 1006.58L468.354 1007.29L407.862 946.804L408.569 946.097ZM327.647 946.097L388.139 1006.58L387.432 1007.29L326.94 946.804L327.647 946.097ZM246.725 946.097L307.217 1006.58L306.509 1007.29L246.018 946.804L246.725 946.097ZM165.803 946.097L226.294 1006.58L225.587 1007.29L165.096 946.804L165.803 946.097ZM84.8811 946.097L145.372 1006.58L144.665 1007.29L84.1741 946.804L84.8811 946.097ZM3.95903 946.097L64.4503 1006.58L63.7433 1007.29L3.252 946.804L3.95903 946.097ZM647.377 936.737H709.47V937.737H647.377V936.737ZM566.455 936.737H628.548V937.737H566.455V936.737ZM485.533 936.737H547.626V937.737H485.533V936.737ZM404.611 936.737H466.704V937.737H404.611V936.737ZM323.688 936.737L385.782 936.737V937.737L323.688 937.737V936.737ZM242.766 936.737H304.86V937.737H242.766V936.737ZM161.844 936.737H223.938V937.737H161.844V936.737ZM80.9222 936.737H143.016V937.737H80.9222V936.737ZM4.74187e-05 936.737H62.0938V937.737H4.73313e-05L4.74187e-05 936.737ZM641.467 868.738V930.828H640.467V868.738H641.467ZM560.545 868.738V930.828H559.545V868.738H560.545ZM479.623 868.738V930.828H478.623V868.738H479.623ZM398.701 868.738V930.828H397.701V868.738H398.701ZM317.779 868.738V930.828H316.779V868.738H317.779ZM236.857 868.738V930.828H235.857V868.738H236.857ZM155.935 868.738V930.828H154.935V868.738H155.935ZM75.0126 868.738L75.0126 930.828H74.0126L74.0126 868.738H75.0126ZM651.336 867.583L711.827 928.071L711.12 928.778L650.629 868.291L651.336 867.583ZM570.414 867.583L630.905 928.071L630.198 928.778L569.707 868.291L570.414 867.583ZM489.492 867.583L549.983 928.071L549.276 928.778L488.784 868.291L489.492 867.583ZM408.569 867.583L469.061 928.071L468.354 928.778L407.862 868.291L408.569 867.583ZM327.647 867.583L388.139 928.071L387.432 928.778L326.94 868.291L327.647 867.583ZM246.725 867.583L307.217 928.071L306.51 928.778L246.018 868.291L246.725 867.583ZM165.803 867.583L226.294 928.071L225.587 928.778L165.096 868.291L165.803 867.583ZM84.8811 867.583L145.372 928.071L144.665 928.778L84.1741 868.291L84.8811 867.583ZM3.95904 867.583L64.4503 928.071L63.7433 928.778L3.25201 868.291L3.95904 867.583ZM647.377 858.224H709.47V859.224H647.377V858.224ZM566.455 858.224H628.548V859.224H566.455V858.224ZM485.533 858.224H547.626V859.224H485.533V858.224ZM404.611 858.224H466.704V859.224H404.611V858.224ZM323.688 858.224L385.782 858.224V859.224L323.688 859.224V858.224ZM242.766 858.224H304.86V859.224H242.766V858.224ZM161.844 858.224H223.938V859.224H161.844V858.224ZM80.9222 858.224H143.016V859.224H80.9222V858.224ZM5.42826e-05 858.224H62.0938V859.224H5.41952e-05L5.42826e-05 858.224ZM641.467 790.498V852.588H640.467V790.498H641.467ZM560.545 790.498V852.588H559.545V790.498H560.545ZM479.623 790.498V852.588H478.623V790.498H479.623ZM398.701 790.498V852.588H397.701V790.498H398.701ZM317.779 790.498V852.588H316.779V790.498H317.779ZM236.857 790.498V852.588H235.857V790.498H236.857ZM155.935 790.498V852.588H154.935V790.498H155.935ZM75.0125 790.498L75.0125 852.588H74.0125L74.0125 790.498H75.0125ZM651.336 789.343L711.827 849.831L711.12 850.538L650.629 790.05L651.336 789.343ZM570.414 789.343L630.905 849.831L630.198 850.538L569.707 790.05L570.414 789.343ZM489.492 789.343L549.983 849.831L549.276 850.538L488.784 790.05L489.492 789.343ZM408.569 789.343L469.061 849.831L468.354 850.538L407.862 790.05L408.569 789.343ZM327.647 789.343L388.139 849.831L387.432 850.538L326.94 790.05L327.647 789.343ZM246.725 789.343L307.217 849.831L306.509 850.538L246.018 790.05L246.725 789.343ZM165.803 789.343L226.294 849.831L225.587 850.538L165.096 790.05L165.803 789.343ZM84.881 789.343L145.372 849.831L144.665 850.538L84.174 790.05L84.881 789.343ZM3.95898 789.343L64.4502 849.831L63.7432 850.538L3.25195 790.05L3.95898 789.343ZM647.377 779.983L709.47 779.984V780.984L647.377 780.983V779.983ZM566.455 779.983H628.548V780.983H566.455V779.983ZM485.533 779.983H547.626V780.983H485.533V779.983ZM404.61 779.983H466.704V780.983H404.61V779.983ZM323.688 779.983H385.782V780.983H323.688V779.983ZM242.766 779.983H304.86V780.983H242.766V779.983ZM161.844 779.983H223.938V780.983H161.844V779.983ZM80.9221 779.983H143.016V780.983H80.9221V779.983ZM8.74228e-08 779.983L62.0938 779.983V780.983L0 780.983L8.74228e-08 779.983ZM641.467 711.984V774.074H640.467V711.984H641.467ZM560.545 711.984V774.074H559.545V711.984H560.545ZM479.623 711.984V774.074H478.623V711.984H479.623ZM398.701 711.984V774.074H397.701V711.984H398.701ZM317.779 711.984V774.074H316.779V711.984H317.779ZM236.857 711.984V774.074H235.857V711.984H236.857ZM155.935 711.984V774.074H154.935V711.984H155.935ZM75.0125 711.984L75.0125 774.074H74.0125L74.0125 711.984H75.0125ZM651.336 710.83L711.827 771.317L711.12 772.024L650.629 711.537L651.336 710.83ZM570.414 710.83L630.905 771.317L630.198 772.024L569.707 711.537L570.414 710.83ZM489.492 710.83L549.983 771.317L549.276 772.024L488.784 711.537L489.492 710.83ZM408.569 710.83L469.061 771.317L468.354 772.024L407.862 711.537L408.569 710.83ZM327.647 710.83L388.139 771.317L387.432 772.024L326.94 711.537L327.647 710.83ZM246.725 710.83L307.217 771.317L306.509 772.024L246.018 711.537L246.725 710.83ZM165.803 710.83L226.294 771.317L225.587 772.024L165.096 711.537L165.803 710.83ZM84.8811 710.83L145.372 771.317L144.665 772.024L84.174 711.537L84.8811 710.83ZM3.95899 710.83L64.4503 771.317L63.7432 772.024L3.25196 711.537L3.95899 710.83ZM647.377 701.47H709.47V702.47H647.377V701.47ZM566.455 701.47H628.548V702.47H566.455V701.47ZM485.533 701.47H547.626V702.47H485.533V701.47ZM404.61 701.47H466.704V702.47H404.61V701.47ZM323.688 701.47L385.782 701.47V702.47L323.688 702.47V701.47ZM242.766 701.47H304.86V702.47H242.766V701.47ZM161.844 701.47H223.938V702.47H161.844V701.47ZM80.9221 701.47H143.016V702.47H80.9221V701.47ZM6.95129e-06 701.47H62.0938V702.47H6.86387e-06L6.95129e-06 701.47ZM641.467 633.471V695.561H640.467V633.471H641.467ZM560.545 633.471V695.561H559.545V633.471H560.545ZM479.623 633.471V695.561H478.623V633.471H479.623ZM398.701 633.471V695.561H397.701V633.471H398.701ZM317.779 633.471V695.561H316.779V633.471H317.779ZM236.857 633.471L236.857 695.561H235.857L235.857 633.471H236.857ZM155.935 633.471L155.935 695.561H154.935L154.935 633.471H155.935ZM75.0125 633.471L75.0125 695.561H74.0125L74.0125 633.471H75.0125ZM651.336 632.316L711.827 692.804L711.12 693.511L650.629 633.023L651.336 632.316ZM570.414 632.316L630.905 692.804L630.198 693.511L569.707 633.023L570.414 632.316ZM489.492 632.316L549.983 692.804L549.276 693.511L488.784 633.023L489.492 632.316ZM408.569 632.316L469.061 692.804L468.354 693.511L407.862 633.023L408.569 632.316ZM327.647 632.316L388.139 692.804L387.432 693.511L326.94 633.023L327.647 632.316ZM246.725 632.316L307.217 692.804L306.509 693.511L246.018 633.023L246.725 632.316ZM165.803 632.316L226.294 692.804L225.587 693.511L165.096 633.023L165.803 632.316ZM84.8811 632.316L145.372 692.804L144.665 693.511L84.174 633.023L84.8811 632.316ZM3.959 632.316L64.4503 692.804L63.7432 693.511L3.25197 633.023L3.959 632.316ZM647.377 622.956H709.47V623.956H647.377V622.956ZM566.455 622.956H628.548V623.956H566.455V622.956ZM485.533 622.956H547.626V623.956H485.533V622.956ZM404.61 622.956H466.704V623.956H404.61V622.956ZM323.688 622.956L385.782 622.956V623.956L323.688 623.956V622.956ZM242.766 622.956H304.86V623.956H242.766V622.956ZM161.844 622.956H223.938V623.956H161.844V622.956ZM80.9221 622.956H143.016V623.956H80.9221V622.956ZM1.38152e-05 622.956H62.0938V623.956H1.37277e-05L1.38152e-05 622.956ZM641.467 550.929V613.019H640.467V550.929H641.467ZM560.545 550.929V613.019H559.545V550.929H560.545ZM479.623 550.929V613.019H478.623V550.929H479.623ZM398.701 550.929L398.701 613.019H397.701L397.701 550.929H398.701ZM317.779 550.929L317.779 613.019H316.779L316.779 550.929H317.779ZM236.857 550.929V613.019H235.857V550.929H236.857ZM155.935 550.929V613.019H154.935V550.929H155.935ZM75.0125 550.929L75.0125 613.019H74.0125L74.0125 550.929H75.0125ZM651.336 549.774L711.827 610.262L711.12 610.969L650.629 550.481L651.336 549.774ZM570.414 549.774L630.905 610.262L630.198 610.969L569.707 550.481L570.414 549.774ZM489.492 549.774L549.983 610.262L549.276 610.969L488.784 550.481L489.492 549.774ZM408.569 549.774L469.061 610.262L468.354 610.969L407.862 550.481L408.569 549.774ZM327.647 549.774L388.139 610.262L387.432 610.969L326.94 550.481L327.647 549.774ZM246.725 549.774L307.217 610.262L306.509 610.969L246.018 550.481L246.725 549.774ZM165.803 549.774L226.294 610.262L225.587 610.969L165.096 550.481L165.803 549.774ZM84.8811 549.774L145.372 610.262L144.665 610.969L84.174 550.481L84.8811 549.774ZM3.959 549.774L64.4503 610.262L63.7432 610.969L3.25197 550.481L3.959 549.774ZM647.377 540.415H709.47V541.415H647.377V540.415ZM566.455 540.415H628.548V541.415H566.455V540.415ZM485.533 540.415H547.626V541.415H485.533V540.415ZM404.611 540.415H466.704V541.415H404.611V540.415ZM323.688 540.415L385.782 540.415V541.415L323.688 541.415V540.415ZM242.766 540.415H304.86V541.415H242.766V540.415ZM161.844 540.415H223.938V541.415H161.844V540.415ZM80.9221 540.415H143.016V541.415H80.9221V540.415ZM2.10312e-05 540.415H62.0938L62.0938 541.415H2.09438e-05L2.10312e-05 540.415ZM641.467 472.416L641.467 534.505H640.467L640.467 472.416H641.467ZM560.545 472.416V534.505H559.545V472.416H560.545ZM479.623 472.415V534.505H478.623V472.415H479.623ZM398.701 472.415V534.505H397.701V472.415H398.701ZM317.779 472.415V534.505H316.779V472.415H317.779ZM236.857 472.415L236.857 534.505H235.857L235.857 472.415H236.857ZM155.935 472.415L155.935 534.505H154.935L154.935 472.415H155.935ZM75.0125 472.415L75.0125 534.505H74.0125L74.0125 472.415H75.0125ZM651.336 471.261L711.827 531.748L711.12 532.455L650.629 471.968L651.336 471.261ZM570.414 471.261L630.905 531.748L630.198 532.455L569.707 471.968L570.414 471.261ZM489.492 471.261L549.983 531.748L549.276 532.455L488.784 471.968L489.492 471.261ZM408.569 471.261L469.061 531.748L468.354 532.455L407.862 471.968L408.569 471.261ZM327.647 471.261L388.139 531.748L387.432 532.455L326.94 471.968L327.647 471.261ZM246.725 471.261L307.217 531.748L306.51 532.455L246.018 471.968L246.725 471.261ZM165.803 471.261L226.294 531.748L225.587 532.455L165.096 471.968L165.803 471.261ZM84.8811 471.261L145.372 531.748L144.665 532.455L84.174 471.968L84.8811 471.261ZM3.95901 471.261L64.4503 531.748L63.7432 532.455L3.25198 471.968L3.95901 471.261ZM647.377 461.901H709.47V462.901H647.377V461.901ZM566.455 461.901H628.548V462.901H566.455V461.901ZM485.533 461.901L547.626 461.901V462.901L485.533 462.901V461.901ZM404.611 461.901H466.704V462.901H404.611V461.901ZM323.688 461.901H385.782V462.901H323.688V461.901ZM242.766 461.901H304.86V462.901H242.766V461.901ZM161.844 461.901L223.938 461.901V462.901L161.844 462.901V461.901ZM80.9221 461.901H143.016V462.901H80.9221V461.901ZM2.78951e-05 461.901H62.0938V462.901H2.78076e-05L2.78951e-05 461.901ZM641.467 393.902V455.992H640.467V393.902H641.467ZM560.545 393.902V455.992H559.545V393.902H560.545ZM479.623 393.902L479.623 455.992H478.623L478.623 393.902H479.623ZM398.701 393.902V455.992H397.701V393.902H398.701ZM317.779 393.902V455.992H316.779V393.902H317.779ZM236.857 393.902V455.992H235.857V393.902H236.857ZM155.935 393.902V455.992H154.935V393.902H155.935ZM75.0125 393.902V455.992H74.0125V393.902H75.0125ZM651.336 392.747L711.827 453.235L711.12 453.942L650.629 393.454L651.336 392.747ZM570.414 392.747L630.905 453.235L630.198 453.942L569.707 393.454L570.414 392.747ZM489.492 392.747L549.983 453.235L549.276 453.942L488.784 393.454L489.492 392.747ZM408.569 392.747L469.061 453.235L468.354 453.942L407.862 393.454L408.569 392.747ZM327.647 392.747L388.139 453.235L387.432 453.942L326.94 393.454L327.647 392.747ZM246.725 392.747L307.217 453.235L306.51 453.942L246.018 393.454L246.725 392.747ZM165.803 392.747L226.294 453.235L225.587 453.942L165.096 393.454L165.803 392.747ZM84.8811 392.747L145.372 453.235L144.665 453.942L84.174 393.454L84.8811 392.747ZM3.95902 392.747L64.4503 453.235L63.7433 453.942L3.25199 393.454L3.95902 392.747ZM647.377 383.388H709.47V384.388H647.377V383.388ZM566.455 383.388H628.548V384.388H566.455V383.388ZM485.533 383.387L547.626 383.388V384.388L485.533 384.387V383.387ZM404.611 383.387H466.704V384.387H404.611V383.387ZM323.688 383.387H385.782V384.387H323.688V383.387ZM242.766 383.387H304.86V384.387H242.766V383.387ZM161.844 383.387L223.938 383.387V384.387L161.844 384.387V383.387ZM80.9222 383.387H143.016V384.387H80.9222V383.387ZM3.47589e-05 383.387H62.0938V384.387H3.46715e-05L3.47589e-05 383.387ZM641.467 315.388V377.478H640.467V315.388H641.467ZM560.545 315.388V377.478H559.545V315.388H560.545ZM479.623 315.388V377.478H478.623V315.388H479.623ZM398.701 315.388V377.478H397.701V315.388H398.701ZM317.779 315.388V377.478H316.779V315.388H317.779ZM236.857 315.388L236.857 377.478H235.857L235.857 315.388H236.857ZM155.935 315.388L155.935 377.478H154.935L154.935 315.388H155.935ZM75.0126 315.388V377.478H74.0126V315.388H75.0126ZM651.336 314.234L711.827 374.721L711.12 375.428L650.629 314.941L651.336 314.234ZM570.414 314.234L630.905 374.721L630.198 375.428L569.707 314.941L570.414 314.234ZM489.492 314.234L549.983 374.721L549.276 375.428L488.784 314.941L489.492 314.234ZM408.569 314.234L469.061 374.721L468.354 375.428L407.862 314.941L408.569 314.234ZM327.647 314.234L388.139 374.721L387.432 375.428L326.94 314.941L327.647 314.234ZM246.725 314.234L307.217 374.721L306.51 375.428L246.018 314.941L246.725 314.234ZM165.803 314.234L226.294 374.721L225.587 375.428L165.096 314.941L165.803 314.234ZM84.8811 314.234L145.372 374.721L144.665 375.428L84.174 314.941L84.8811 314.234ZM3.95903 314.234L64.4503 374.721L63.7433 375.428L3.25199 314.941L3.95903 314.234ZM647.377 304.874H709.47V305.874H647.377V304.874ZM566.455 304.874H628.548V305.874H566.455V304.874ZM485.533 304.874L547.626 304.874V305.874L485.533 305.874V304.874ZM404.611 304.874H466.704V305.874H404.611V304.874ZM323.688 304.874H385.782V305.874H323.688V304.874ZM242.766 304.874H304.86V305.874H242.766V304.874ZM161.844 304.874L223.938 304.874V305.874L161.844 305.874V304.874ZM80.9222 304.874H143.016V305.874H80.9222V304.874ZM4.16228e-05 304.874H62.0938V305.874H4.15354e-05L4.16228e-05 304.874ZM641.467 236.875V298.965H640.467V236.875H641.467ZM560.545 236.875L560.545 298.965H559.545L559.545 236.875H560.545ZM479.623 236.875V298.965H478.623V236.875H479.623ZM398.701 236.875L398.701 298.965H397.701L397.701 236.875H398.701ZM317.779 236.875L317.779 298.965H316.779L316.779 236.875H317.779ZM236.857 236.875V298.965H235.857V236.875H236.857ZM155.935 236.875V298.965H154.935V236.875H155.935ZM75.0126 236.875V298.965H74.0126V236.875H75.0126ZM651.336 235.72L711.827 296.208L711.12 296.915L650.629 236.427L651.336 235.72ZM570.414 235.72L630.905 296.208L630.198 296.915L569.707 236.427L570.414 235.72ZM489.492 235.72L549.983 296.208L549.276 296.915L488.785 236.427L489.492 235.72ZM408.57 235.72L469.061 296.208L468.354 296.915L407.862 236.427L408.57 235.72ZM327.647 235.72L388.139 296.208L387.432 296.915L326.94 236.427L327.647 235.72ZM246.725 235.72L307.217 296.208L306.51 296.915L246.018 236.427L246.725 235.72ZM165.803 235.72L226.294 296.208L225.587 296.915L165.096 236.427L165.803 235.72ZM84.8811 235.72L145.372 296.208L144.665 296.915L84.1741 236.427L84.8811 235.72ZM3.95903 235.72L64.4503 296.208L63.7433 296.915L3.252 236.427L3.95903 235.72ZM647.377 226.36H709.47V227.36H647.377V226.36ZM566.455 226.36L628.548 226.36V227.36L566.455 227.36V226.36ZM485.533 226.36H547.626V227.36H485.533V226.36ZM404.611 226.36L466.704 226.36V227.36L404.611 227.36V226.36ZM323.688 226.36H385.782V227.36H323.688V226.36ZM242.766 226.36L304.86 226.36V227.36L242.766 227.36V226.36ZM161.844 226.36H223.938V227.36H161.844V226.36ZM80.9222 226.36L143.016 226.36V227.36L80.9222 227.36V226.36ZM4.84867e-05 226.36H62.0938V227.36H4.83993e-05L4.84867e-05 226.36ZM641.467 158.361V220.451H640.467V158.361H641.467ZM560.545 158.361V220.451H559.545V158.361H560.545ZM479.623 158.361V220.451H478.623V158.361H479.623ZM398.701 158.361V220.451H397.701V158.361H398.701ZM317.779 158.361V220.451H316.779V158.361H317.779ZM236.857 158.361L236.857 220.451H235.857L235.857 158.361H236.857ZM155.935 158.361L155.935 220.451H154.935L154.935 158.361H155.935ZM75.0126 158.361L75.0126 220.451H74.0126L74.0126 158.361H75.0126ZM651.336 157.206L711.827 217.694L711.12 218.401L650.629 157.914L651.336 157.206ZM570.414 157.206L630.905 217.694L630.198 218.401L569.707 157.914L570.414 157.206ZM489.492 157.206L549.983 217.694L549.276 218.401L488.785 157.914L489.492 157.206ZM408.57 157.206L469.061 217.694L468.354 218.401L407.862 157.914L408.57 157.206ZM327.647 157.206L388.139 217.694L387.432 218.401L326.94 157.914L327.647 157.206ZM246.725 157.206L307.217 217.694L306.51 218.401L246.018 157.914L246.725 157.206ZM165.803 157.206L226.294 217.694L225.587 218.401L165.096 157.914L165.803 157.206ZM84.8811 157.206L145.372 217.694L144.665 218.401L84.1741 157.914L84.8811 157.206ZM3.95904 157.206L64.4503 217.694L63.7433 218.401L3.25201 157.914L3.95904 157.206ZM647.377 147.847H709.47V148.847H647.377V147.847ZM566.455 147.847L628.548 147.847V148.847L566.455 148.847V147.847ZM485.533 147.847H547.626V148.847H485.533V147.847ZM404.611 147.847L466.704 147.847V148.847L404.611 148.847V147.847ZM323.688 147.847H385.782V148.847H323.688V147.847ZM242.766 147.847L304.86 147.847V148.847L242.766 148.847V147.847ZM161.844 147.847H223.938V148.847H161.844V147.847ZM80.9222 147.847L143.016 147.847V148.847L80.9222 148.847V147.847ZM5.53506e-05 147.847H62.0938L62.0938 148.847H5.52632e-05L5.53506e-05 147.847ZM641.467 79.8467V141.937H640.467V79.8467H641.467ZM560.545 79.8467V141.937H559.545V79.8467H560.545ZM479.623 79.8467L479.623 141.937H478.623L478.623 79.8467H479.623ZM398.701 79.8467V141.937H397.701V79.8467H398.701ZM317.779 79.8467V141.937H316.779V79.8467H317.779ZM236.857 79.8467V141.937H235.857V79.8467H236.857ZM155.935 79.8467V141.937H154.935V79.8467H155.935ZM75.0126 79.8467L75.0126 141.937H74.0126L74.0126 79.8467H75.0126ZM651.336 78.6919L711.827 139.18L711.12 139.887L650.629 79.399L651.336 78.6919ZM570.414 78.6919L630.905 139.18L630.198 139.887L569.707 79.399L570.414 78.6919ZM489.492 78.6919L549.983 139.18L549.276 139.887L488.785 79.399L489.492 78.6919ZM408.57 78.6919L469.061 139.18L468.354 139.887L407.862 79.399L408.57 78.6919ZM327.647 78.6919L388.139 139.18L387.432 139.887L326.94 79.399L327.647 78.6919ZM246.725 78.6919L307.217 139.18L306.51 139.887L246.018 79.3989L246.725 78.6919ZM165.803 78.6919L226.294 139.18L225.587 139.887L165.096 79.3989L165.803 78.6919ZM84.8811 78.6919L145.372 139.18L144.665 139.887L84.1741 79.3989L84.8811 78.6919ZM3.95905 78.6919L64.4503 139.18L63.7433 139.887L3.25201 79.3989L3.95905 78.6919ZM647.377 69.3317L709.47 69.3317V70.3317L647.377 70.3317V69.3317ZM566.455 69.3317L628.548 69.3317V70.3317L566.455 70.3317V69.3317ZM485.533 69.3317H547.626V70.3317H485.533V69.3317ZM404.611 69.3317H466.704V70.3317H404.611V69.3317ZM323.688 69.3317H385.782V70.3317H323.688V69.3317ZM242.766 69.3317H304.86V70.3317H242.766V69.3317ZM161.844 69.3317L223.938 69.3317V70.3317L161.844 70.3317V69.3317ZM80.9222 69.3317L143.016 69.3317V70.3317L80.9222 70.3317V69.3317ZM6.22146e-05 69.3317L62.0938 69.3317V70.3317L6.21272e-05 70.3317L6.22146e-05 69.3317ZM641.467 1.33148V63.4222H640.467V1.33148L641.467 1.33148ZM560.545 1.33147V63.4222H559.545V1.33147L560.545 1.33147ZM479.623 1.33146V63.4222H478.623V1.33146L479.623 1.33146ZM398.701 1.33146V63.4222H397.701V1.33146H398.701ZM317.779 1.33145V63.4221H316.779V1.33145L317.779 1.33145ZM236.857 1.33144V63.4221H235.857V1.33144L236.857 1.33144ZM155.935 1.33143V63.4221H154.935V1.33143H155.935ZM75.0126 1.33143L75.0126 63.4221H74.0126L74.0126 1.33143L75.0126 1.33143ZM651.336 0.176814L711.827 60.6649L711.12 61.3719L650.629 0.883846L651.336 0.176814ZM570.414 0.176807L630.905 60.6648L630.198 61.3719L569.707 0.883839L570.414 0.176807ZM489.492 0.1768L549.983 60.6648L549.276 61.3719L488.785 0.883831L489.492 0.1768ZM408.57 0.176793L469.061 60.6648L468.354 61.3719L407.862 0.883824L408.57 0.176793ZM327.647 0.176786L388.139 60.6648L387.432 61.3719L326.94 0.883817L327.647 0.176786ZM246.725 0.176779L307.217 60.6648L306.51 61.3719L246.018 0.88381L246.725 0.176779ZM165.803 0.176772L226.294 60.6648L225.587 61.3718L165.096 0.883803L165.803 0.176772ZM84.8811 0.176765L145.372 60.6648L144.665 61.3718L84.1741 0.883796L84.8811 0.176765ZM3.95905 0.176758L64.4503 60.6648L63.7433 61.3718L3.25202 0.883789L3.95905 0.176758Z" fill="url(#paint0_linear_305_984)"/>
<defs>
<linearGradient id="paint0_linear_305_984" x1="381.896" y1="458.354" x2="-131.921" y2="608.381" gradientUnits="userSpaceOnUse">
<stop stop-color="#161616"/>
<stop offset="1" stop-color="#777777"/>
</linearGradient>
</defs>
</svg>
